<?xml version="1.0" encoding="utf-8"?>
<!-- Generator: Adobe Illustrator 19.0.0, SVG Export Plug-In . SVG Version: 6.00 Build 0)  -->
<svg version="1.1" id="Layer_1" xmlns="http://www.w3.org/2000/svg" xmlns:xlink="http://www.w3.org/1999/xlink" x="0px" y="0px"
	 viewBox="0 0 76 168.2" style="enable-background:new 0 0 76 168.2;" xml:space="preserve">
<style type="text/css">
	.st0{opacity:0.64;}
	.st1{fill:#939598;}
</style>
<g class="st0">
	<g id="XMLID_11_">
		<path id="XMLID_15_" class="st1" d="M74.7,159.4C55.4,136.4,36,113.3,16.6,90.3c-2.7-3.2-5.4-6.5-8.2-9.7c0,2.4,0,4.7,0,7.1
			c19.4-23.1,38.7-46.1,58.1-69.2c2.7-3.2,5.4-6.5,8.2-9.7c4.1-4.9-2.9-12-7.1-7.1C48.3,24.7,28.9,47.8,9.6,70.8
			c-2.7,3.2-5.4,6.5-8.2,9.7c-1.9,2.2-1.9,4.8,0,7.1c19.4,23.1,38.7,46.1,58.1,69.2c2.7,3.2,5.4,6.5,8.2,9.7
			C71.8,171.4,78.8,164.3,74.7,159.4L74.7,159.4z"/>
	</g>
</g>
</svg>
