<?xml version="1.0" encoding="utf-8"?>
<!-- Generator: Adobe Illustrator 19.0.0, SVG Export Plug-In . SVG Version: 6.00 Build 0)  -->
<svg version="1.1" id="Layer_1" xmlns="http://www.w3.org/2000/svg" xmlns:xlink="http://www.w3.org/1999/xlink" x="0px" y="0px"
	 viewBox="-355.5 266.3 249.8 29.6" style="enable-background:new -355.5 266.3 249.8 29.6;" xml:space="preserve">
<style type="text/css">
	.st0{fill:#F3F4F4;}
</style>
<g id="OV68Zg.tif">
	<g>
		<path class="st0" d="M-105.7,272.2c0,0-0.1,0.1-0.1,0.1c-0.1,1.2-0.7,2.1-1.5,2.9c-0.5,0.5-1.1,0.9-1.8,1.3c0-0.2,0-0.3-0.1-0.4
			c0,0,0,0-0.1,0c0,0.1,0,0.3,0,0.5c0-0.1,0-0.2-0.1-0.2c0-0.1,0-0.1-0.1-0.2c0,0.1,0,0.3,0,0.5c-0.4,0.3-0.8,0.6-1.2,0.9
			c-0.7,0.6-1.4,1.3-2,2c-1.5,1.7-2.5,3.7-3.2,5.9c-0.2,0.5-0.3,1-0.4,1.5c-0.1,0.5-0.2,1.1-0.2,1.6c-0.1,0.7-0.2,1.4-0.3,2.1
			c-0.1,0-0.2,0-0.3,0c0.1,0.3,0.1,0.6,0.2,0.9c-0.1,0.3,0,0.8-0.5,1.1c0,0.1,0,0.1,0.1,0.2c-0.3,0.7-0.8,1.3-1.5,1.8
			c-0.1,0-0.2,0-0.3-0.1c0,0.1,0,0.2-0.1,0.3c-1.5,0.8-3,0.9-4.6,0.2c0-0.6,0-1.1,0-1.6c0,0,0,0-0.1,0c0,0.5,0,1,0,1.6
			c-0.5-0.2-1-0.5-1.3-0.9c-0.8-0.8-1.3-1.8-1.4-2.9c-0.1-0.8-0.2-1.5-0.3-2.3c-0.2-1.9-0.6-3.8-1.4-5.5c-0.7-1.6-1.6-3.1-2.7-4.4
			c-0.3-0.3-0.5-0.6-0.8-0.8c-0.3-0.2-0.4-0.5-0.3-0.8c0-0.1,0-0.1,0-0.2c0,0.2,0,0.4,0,0.6c-0.1,0-0.1,0-0.2-0.1
			c-0.9-0.8-1.9-1.5-2.9-2.1c-0.8-0.6-1.6-1.3-2-2.2c-0.5-1.2-0.6-2.3-0.3-3.6c0.1,0,0.2-0.1,0.2-0.1c-0.2-0.4,0.1-0.7,0.2-1
			c0.4-0.7,0.8-1.3,1.5-1.7c0.3-0.2,0.5-0.3,0.8-0.5c0.5-0.3,1.1-0.4,1.7-0.6c0.4,0,0.7,0,1.1,0c0,0,0.1,0.1,0.1,0.1
			c0.7,0.1,1.4,0.4,2,0.7c1,0.6,2,1.2,3,1.8c0,1.9,0,3.8,0,5.7c-0.1,0-0.2,0-0.3,0.1c0,0.1,0,0.2,0,0.3c0.1,0,0.3,0.1,0.4,0.1
			c0,0.6,0,1.2,0,1.8c-0.2,0-0.3,0.1-0.4,0.1c0.3,0.5,0.3,0.5,0.1,0.8c0.1,0,0.2,0,0.3,0.1c0,0.2,0,0.3,0.1,0.5c0,0,0,0.1,0,0.1
			c0.2,1.4,0.8,2.5,1.9,3.4c0.2,0.1,0.3,0.3,0.4,0.4c0.3,0.1,0.5,0.2,0.7,0.3c0,0.3,0.1,0.5,0.1,0.8c0,0,0,0,0.1,0
			c0-0.2,0-0.4,0.1-0.6c0,0,0.1,0,0.1,0c0.1,0,0.1,0,0.2,0c2,0.6,3.7,0.1,5.2-1.3c1-1,1.4-2.3,1.4-3.7c0-2.7,0-5.5,0-8.2
			c0-0.2,0-0.5,0-0.7c0.8-0.5,1.6-1,2.4-1.4c0.7-0.4,1.5-0.8,2.3-1c0.2,0,0.3-0.1,0.5-0.1c0.4,0,0.7,0,1.1,0
			c0.4,0.1,0.7,0.2,1.2,0.3c0,0.7,0,1.3,0,1.9c0,0,0,0,0.1,0c0-0.6,0-1.3,0-1.9c0.1,0,0.2,0,0.2,0.1c1.4,0.6,2.3,1.6,2.9,3.1
			c0.1,0.4,0.2,0.8,0.3,1.2C-105.7,271.4-105.7,271.8-105.7,272.2z M-130.3,269.2c0.3,0.1,0.5,0.1,0.7,0.2c0.1-0.1,0.2-0.2,0.3-0.4
			c-0.1-0.1-0.2-0.2-0.2-0.3c0-0.3,0.1-0.5-0.2-0.7c-0.1,0.2-0.2,0.3-0.2,0.5c0.1,0.2,0.1,0.3,0.2,0.4
			C-130,269-130.1,269-130.3,269.2z M-111.1,270.5c-0.2,0.2-0.4,0.4-0.6,0.6c-0.1,0.4-0.1,0.4,0.1,0.5c0.1-0.1,0.2-0.3,0.4-0.4
			c0,0,0,0,0,0c0-0.1,0.1-0.2,0.1-0.3c0.2,0,0.1,0.4,0.4,0.2c-0.1-0.1-0.1-0.2-0.2-0.4c0-0.1,0.1-0.2,0.1-0.3
			c-0.1,0-0.2-0.1-0.3-0.1C-111.1,270.4-111.1,270.5-111.1,270.5z M-130.3,272.3C-130.3,272.3-130.3,272.3-130.3,272.3
			c-0.2,0.1-0.4,0.3-0.5,0.4c0,0.3,0,0.5,0.1,0.8c0.2,0,0.3,0.1,0.5,0.1c-0.3-0.6-0.3-0.7,0.1-1c-0.1,0-0.1-0.1-0.2-0.1
			C-130.3,272.5-130.3,272.4-130.3,272.3z M-134.8,273.4c0,0.3-0.1,0.5-0.1,0.7c0.4,0,0.6-0.2,0.8-0.3c0,0,0-0.1,0-0.1
			C-134.3,273.6-134.5,273.5-134.8,273.4z M-136.1,273.4c0.2,0,0.3,0,0.5,0c0.2-0.3,0.2-0.4,0.1-0.7c-0.1,0-0.2,0.1-0.4,0.1
			C-135.9,273-136,273.2-136.1,273.4z M-126.9,273.9c-0.1-0.1-0.2-0.2-0.4-0.1c-0.1,0.1-0.3-0.2-0.5-0.1c0.1,0.2,0.1,0.4,0.4,0.3
			c0,0,0.1,0,0.1,0.1C-127.1,274.3-127.1,274.3-126.9,273.9z M-128.2,278.2c-0.1-0.2-0.2-0.3-0.3-0.4c-0.3,0.3-0.3,0.5-0.2,0.8
			C-128.4,278.6-128.3,278.4-128.2,278.2z M-123.5,285.9c0,0.6,0,1.1,0,1.7c0,0,0,0,0.1,0c0-0.4,0-0.8,0-1.2
			c0.3-0.1,0.3-0.1,0.4-0.4C-123.2,286.1-123.4,286-123.5,285.9z M-118.7,288.4c0.2,0,0.3,0,0.4,0c0.2,0,0.3-0.2,0.4-0.4
			c0.1-0.1,0-0.3-0.2-0.3C-118.3,287.9-118.5,288.1-118.7,288.4z M-118.4,289c0.1,0.2,0.2,0.3,0.3,0.5c0.3-0.6,0.4-0.6,0.1-0.8
			C-118.1,288.8-118.2,288.9-118.4,289z M-113,272.2c0.4-0.1,0.7-0.2,1.1-0.4C-112.5,271.6-112.7,271.6-113,272.2z M-129.8,276.8
			c-0.2,0-0.4,0.1-0.6,0.1c0.1,0.2,0.2,0.3,0.2,0.4c0.2-0.1,0.3-0.2,0.5-0.3C-129.7,277-129.8,277-129.8,276.8z"/>
		<path class="st0" d="M-355.5,272.2c1.2,0,2.4,0,3.7,0c1.4,0,2.8,0.1,4.1,0.6c1.1,0.3,2.1,0.8,3.1,1.5c1.5,1.1,2.5,2.6,3,4.5
			c0.3,1.2,0.4,2.4,0.3,3.6c-0.1,1.1-0.3,2.2-0.8,3.2c-0.7,1.6-1.9,2.8-3.5,3.7c-1.3,0.7-2.6,1.1-4,1.3c-1,0.1-1.9,0.2-2.9,0.2
			c-1,0-2,0-2.9,0C-355.5,284.6-355.5,278.4-355.5,272.2z M-353.2,288.6c0.2,0,0.3,0,0.4,0c0.9,0,1.7,0,2.6-0.2
			c1.3-0.2,2.5-0.5,3.6-1.2c1.2-0.7,2.1-1.7,2.5-3c0.6-1.6,0.6-3.2,0.2-4.8c-0.3-1.1-0.8-2.1-1.6-2.9c-0.9-0.9-2-1.4-3.2-1.7
			c-1.1-0.3-2.2-0.4-3.3-0.4c-0.4,0-0.8,0-1.3,0C-353.2,279.1-353.2,283.8-353.2,288.6z"/>
		<path class="st0" d="M-201.8,277.1c0,4.5,0,9,0,13.6c-0.8,0-1.5,0-2.3,0c0-6.4,0-12.8,0-19.3c4.6,4.8,9.2,9.6,13.8,14.5
			c0-4.6,0-9.1,0-13.6c0.8,0,1.5,0,2.3,0c0,6.4,0,12.7,0,19.2c-2.3-2.4-4.6-4.8-6.9-7.2C-197.2,281.8-199.5,279.4-201.8,277.1
			C-201.8,277.1-201.8,277.1-201.8,277.1z"/>
		<path class="st0" d="M-318.2,274.4c0,1.7,0,3.4,0,5.2c1.2,0,2.5,0,3.7,0c1.2,0,2.4,0,3.6,0c0,0.7,0,1.4,0,2.1c-2.4,0-4.9,0-7.3,0
			c0,2.3,0,4.6,0,7c0.6,0,1.2,0,1.9,0c0.6,0,1.3,0,1.9,0c0.6,0,1.3,0,1.9,0c0.6,0,1.2,0,1.9,0c0,0.7,0,1.4,0,2.1c-3.3,0-6.6,0-9.9,0
			c0-6.2,0-12.3,0-18.5c3.3,0,6.6,0,9.9,0c0,0.7,0,1.4,0,2.1C-313.2,274.4-315.7,274.4-318.2,274.4z"/>
		<path class="st0" d="M-290.3,285.9c0.8-0.2,1.5-0.3,2.3-0.5c0,0.3,0.1,0.5,0.1,0.8c0.3,1.5,1.3,2.3,2.7,2.6
			c2.1,0.5,3.8-1.1,4.1-2.7c0.2-1,0-1.9-0.6-2.7c-0.4-0.5-0.9-0.8-1.4-1c-0.8-0.4-1.6-0.7-2.5-1.1c-1-0.4-2-1-2.8-1.8
			c-0.9-0.9-1.2-2-1.1-3.3c0.2-2.1,1.8-3.6,3.8-4.2c1.1-0.3,2.3-0.3,3.4,0.1c1.3,0.4,2.3,1.3,3,2.5c-0.6,0.4-1.2,0.7-1.8,1.1
			c-0.1-0.2-0.2-0.3-0.4-0.5c-0.8-1-1.8-1.4-3.1-1.2c-0.8,0.1-1.5,0.4-2,1c-0.7,0.8-0.9,2.2,0,3c0.4,0.4,0.9,0.8,1.5,1
			c0.8,0.3,1.6,0.6,2.4,1c0.8,0.4,1.6,0.8,2.3,1.4c1,0.9,1.5,2,1.6,3.3c0.1,0.9,0,1.8-0.3,2.6c-0.7,2-2.1,3.1-4.1,3.6
			c-1,0.3-2.1,0.2-3.1-0.1c-2-0.7-3.2-2.1-3.8-4.1C-290.2,286.5-290.3,286.2-290.3,285.9z"/>
		<path class="st0" d="M-161,280.1c1.5-2.7,3-5.3,4.5-7.9c0.9,0,1.7,0,2.6,0c-0.1,0.1-0.1,0.2-0.1,0.3c-1.3,2.3-2.7,4.6-4,6.9
			c-0.6,1-1.1,2-1.7,2.9c-0.1,0.2-0.2,0.4-0.2,0.7c0,2.4,0,4.8,0,7.2c0,0.1,0,0.3,0,0.5c-0.8,0-1.5,0-2.3,0c0-0.2,0-0.3,0-0.5
			c0-2.4,0-4.7,0-7.1c0-0.3-0.1-0.6-0.2-0.9c-1.4-2.3-2.7-4.7-4.1-7c-0.5-0.8-0.9-1.6-1.4-2.4c-0.1-0.2-0.2-0.4-0.3-0.6
			c0.9,0,1.7,0,2.6,0C-164,274.8-162.5,277.4-161,280.1z"/>
		<path class="st0" d="M-248.4,272.3c0,0.7,0,1.3,0,2.1c-0.5,0-1,0-1.4,0c-0.5,0-1,0-1.5,0c-0.5,0-0.9,0-1.4,0c0,5.5,0,10.9,0,16.3
			c-0.3,0.1-1.7,0.1-2.3,0c0-5.4,0-10.9,0-16.3c-1.5,0-2.9,0-4.3,0c0-0.7,0-1.4,0-2.1C-259.1,272.2-248.8,272.2-248.4,272.3z"/>
		<path class="st0" d="M-228.1,272.2c0.8,0,1.5,0,2.3,0c0,6.2,0,12.3,0,18.5c-0.4,0-0.8,0-1.1,0c-0.4,0-0.7,0-1.1,0
			C-228.1,284.6-228.1,278.4-228.1,272.2z"/>
		<path class="st0" d="M-150.4,272.9c0.2-0.2,0.1-0.6,0.4-0.7c0.1,0.3,0.1,0.6-0.1,1c0-0.2,0-0.3-0.1-0.6c-0.1,0.2-0.2,0.4-0.3,0.7
			c-0.1-0.1-0.1-0.2-0.2-0.3c0-0.1-0.1-0.2-0.2-0.3c0,0.2,0,0.4-0.1,0.5c0,0,0,0-0.1,0c0-0.2,0-0.4,0-0.6c0-0.1,0-0.2,0-0.3
			C-150.5,272.4-150.5,272.7-150.4,272.9z"/>
		<path class="st0" d="M-151.4,272.4c-0.2,0-0.2-0.1-0.3-0.1c0,0,0,0,0-0.1c0.2,0,0.5,0,0.7,0c0,0,0,0,0,0c-0.1,0-0.1,0.1-0.2,0.1
			c0,0.2,0,0.5,0,0.8c0,0-0.1,0-0.1,0C-151.4,272.9-151.4,272.7-151.4,272.4z"/>
		<path class="st0" d="M-130.3,269.2c0.2-0.1,0.3-0.2,0.4-0.3c0-0.1-0.1-0.3-0.2-0.4c0.1-0.1,0.1-0.3,0.2-0.5
			c0.3,0.2,0.3,0.5,0.2,0.7c0.1,0.1,0.1,0.2,0.2,0.3c-0.1,0.1-0.2,0.2-0.3,0.4C-129.8,269.3-130,269.2-130.3,269.2z"/>
		<path class="st0" d="M-130.3,272.3c0,0.1,0,0.1-0.1,0.2c0.1,0,0.1,0.1,0.2,0.1c-0.4,0.3-0.4,0.4-0.1,1c-0.2,0-0.3-0.1-0.5-0.1
			c0-0.3,0-0.5-0.1-0.8C-130.7,272.6-130.5,272.4-130.3,272.3C-130.3,272.3-130.3,272.3-130.3,272.3z"/>
		<path class="st0" d="M-134.8,273.4c0.2,0.1,0.5,0.1,0.7,0.2c0,0,0,0.1,0,0.1c-0.2,0.1-0.4,0.3-0.8,0.3
			C-134.9,273.9-134.8,273.7-134.8,273.4z"/>
		<path class="st0" d="M-136.1,273.4c0.1-0.2,0.2-0.4,0.2-0.6c0.1,0,0.2-0.1,0.4-0.1c0.2,0.3,0.2,0.4-0.1,0.7
			C-135.8,273.4-135.9,273.4-136.1,273.4z"/>
		<path class="st0" d="M-126.9,273.9c-0.1,0.3-0.1,0.3-0.4,0.2c0,0-0.1-0.1-0.1-0.1c-0.3,0.1-0.3-0.2-0.4-0.3
			c0.2-0.1,0.4,0.1,0.5,0.1C-127.2,273.7-127.1,273.8-126.9,273.9z"/>
		<path class="st0" d="M-128.2,278.2c-0.1,0.2-0.2,0.4-0.5,0.4c-0.1-0.3-0.1-0.6,0.2-0.8C-128.3,277.9-128.3,278-128.2,278.2z"/>
		<path class="st0" d="M-123.5,285.9c0.2,0.1,0.3,0.1,0.5,0.2c-0.1,0.3-0.1,0.3-0.4,0.4c0,0.4,0,0.8,0,1.2c0,0,0,0-0.1,0
			C-123.5,287.1-123.5,286.5-123.5,285.9z"/>
		<path class="st0" d="M-118.7,288.4c0.2-0.3,0.4-0.5,0.6-0.7c0.1,0.1,0.2,0.2,0.2,0.3c-0.1,0.2-0.1,0.3-0.4,0.4
			C-118.4,288.3-118.5,288.3-118.7,288.4z"/>
		<path class="st0" d="M-118.4,289c0.1-0.1,0.3-0.2,0.4-0.3c0.2,0.2,0.2,0.3-0.1,0.8C-118.2,289.3-118.3,289.2-118.4,289z"/>
		<path class="st0" d="M-113,272.2c0.3-0.6,0.5-0.6,1.1-0.4C-112.3,272-112.6,272.1-113,272.2z"/>
		<path class="st0" d="M-129.8,276.8c0.1,0.1,0.1,0.2,0.1,0.3c-0.1,0.1-0.3,0.2-0.5,0.3c-0.1-0.1-0.1-0.3-0.2-0.4
			C-130.2,276.9-130,276.9-129.8,276.8z"/>
		<path class="st0" d="M-118.4,278.8c-0.1,0-0.1,0.1-0.2,0.1c0,0.1,0,0.2,0,0.3c-0.5,1.4-1.9,2.2-3.2,2.2c-1.3,0-2.8-0.9-3.2-2.4
			c-0.1-0.3-0.1-0.6-0.1-0.9c0-1.9,0-3.9,0-5.8c0-0.9,0.4-1.8,1.1-2.4c0,0.1,0.1,0.1,0.1,0.2c0.1-0.1,0.2-0.1,0.3-0.2
			c0-0.1,0-0.2,0-0.3c1.2-1,3.2-0.8,4.3,0.3c0.5,0.5,0.9,1.1,1,1.7c0.1,0.5,0.1,1,0.1,1.6c0,0.5,0,1,0,1.6c0,1,0,2,0,2.9
			C-118.3,278-118.3,278.4-118.4,278.8z"/>
	</g>
</g>
</svg>
