<?xml version="1.0" encoding="utf-8"?>
<!-- Generator: Adobe Illustrator 19.0.0, SVG Export Plug-In . SVG Version: 6.00 Build 0)  -->
<svg version="1.1" id="Layer_1" xmlns="http://www.w3.org/2000/svg" xmlns:xlink="http://www.w3.org/1999/xlink" x="0px" y="0px"
	 viewBox="0 0 155.5 38.3" style="enable-background:new 0 0 155.5 38.3;" xml:space="preserve">
<style type="text/css">
	.st0{fill:#F3F4F4;}
</style>
<path class="st0" d="M7.4,0c0.1,0.1,0.3,0.1,0.4,0.2c0.3,0.2,0.4,0.4,0.4,0.8c0,0.2,0,0.3,0,0.5c0,0.1,0,0.1,0,0.2
	C8.2,1.7,8.1,1.7,8,1.7c0,0.1-0.1,0.3,0,0.4c0.1,0,0.1-0.1,0.1-0.1c0.1-0.1,0.3-0.2,0.4,0c0.1,0.1,0.1,0.1,0.2,0.1
	c0.1,0,0.2,0,0.3,0.1c0.1,0,0.2,0,0.3,0c0.1,0,0.3,0,0.4,0.1c0.1,0.1,0,0.3,0,0.4c0,0,0.1,0,0.1,0c0.1,0,0.3,0.1,0.4,0.2
	c0.1,0.1,0.1,0.1,0.2,0.1c0.2,0,0.4,0,0.6,0.1c0.2,0.1,0.4,0,0.5,0.1c0,0,0,0,0,0c0,0,0-0.1,0-0.1c0-0.1,0-0.2,0.1-0.2
	c0.1,0,0.1,0,0.2,0C12,3,12,3.1,12,3.2c0,0,0,0.1-0.1,0.1c0.1,0,0.1,0.1,0.1,0.1c0,0.1,0,0.1,0,0.2c0,0.1,0,0.1,0,0.2
	C12.3,4,12.6,3.9,12.9,4c0.1,0.1,0,0.2-0.1,0.3c-0.2,0-0.3,0-0.5-0.1c-0.1-0.1-0.3-0.1-0.4-0.1c-0.1,0.1-0.3,0.1-0.4,0.1
	C11.2,4.1,10.9,4,10.6,4c0,0-0.1,0-0.1,0c-0.2,0.2-0.2,0.2-0.4,0.2c-0.1,0-0.2,0-0.4,0c-0.1,0-0.2,0-0.2,0.2c0,0.2,0,0.5,0,0.7
	C9.4,5.2,9.2,5.2,9,5.2C8.9,5.1,8.9,5.1,8.9,5c0-0.1,0-0.2-0.1-0.2C8.7,4.8,8.6,5,8.4,5C8.3,5.2,8.3,5.4,8.2,5.5c0,0.1,0,0.2,0,0.3
	c0,0.1,0,0.2,0,0.2c0,0.1,0,0.3,0,0.4c0,0.1,0,0.1,0.1,0.2C8.4,6.8,8.5,7,8.6,7.1C8.7,7.4,8.8,7.6,9,7.8C9.3,8,9.5,8.3,9.7,8.5
	c0.3,0.3,0.5,0.7,0.4,1.2c0,0.2,0,0.4,0,0.6c0,0.1,0,0.2,0,0.3c0.1,0.2,0.1,0.5,0.1,0.7c0,0.2,0,0.3-0.2,0.4
	C10,11.8,9.9,12,9.9,12.1c0,0.2,0.1,0.4,0.2,0.6c0.1,0.2,0.3,0.3,0.5,0.4c0.1,0.1,0.2,0.1,0.2,0.2c0.1,0.1,0.1,0.1,0.1,0.3
	c0,0.1,0,0.1,0.1,0.2c0.1,0.2,0,0.4-0.2,0.5c-0.2,0.1-0.5,0.1-0.7,0c0,0-0.1,0-0.1-0.1c-0.2-0.1-0.3-0.2-0.4-0.5
	c-0.1-0.1-0.2-0.2-0.3-0.3c-0.2,0-0.3-0.2-0.4-0.3c0,0,0-0.1,0-0.1c0-0.2,0.1-0.5,0.1-0.7c0-0.1,0-0.2-0.1-0.3
	c-0.2-0.1-0.2-0.3-0.1-0.5c0,0,0,0,0-0.1c0,0,0-0.1,0-0.1c-0.2-0.2-0.2-0.4-0.1-0.6c0-0.1,0.1-0.2,0.1-0.3c0-0.1-0.1-0.1-0.2-0.2
	C8.3,10.2,8.2,10,8.2,9.7c0,0,0-0.1,0-0.1C8.1,9.5,7.9,9.4,7.8,9.3C7.7,9.2,7.6,9.2,7.5,9.1C7.5,8.9,7.4,8.9,7.3,8.8
	C7,8.7,6.8,8.5,6.7,8.4C6.6,8.3,6.6,8.2,6.5,8.2C6.4,8.1,6.2,8.1,6.1,8.3C6,8.5,5.8,8.6,5.6,8.8C5.4,8.9,5.3,9,5.1,9.1
	C5,9.1,4.9,9.2,4.8,9.3C4.7,9.4,4.5,9.5,4.3,9.7c0,0.3-0.2,0.4-0.5,0.5c-0.1,0-0.2,0.1-0.3,0.2c-0.2,0.1-0.3,0.2-0.4,0.4
	c-0.1,0.2-0.3,0.4-0.5,0.5c0,0.1,0,0.3,0,0.5c0,0.1,0,0.2-0.1,0.3c0,0-0.1,0.1-0.1,0.1c-0.1,0-0.2,0-0.3,0.1c0,0,0,0,0,0
	c0,0.3-0.2,0.5-0.6,0.5c-0.2,0-0.4,0-0.6,0c-0.1,0-0.2,0-0.2-0.1c0-0.2,0-0.4,0.1-0.5c0.1-0.1,0.2-0.1,0.3-0.2
	c0.3-0.2,0.5-0.4,0.7-0.7c0-0.1,0-0.1,0-0.1c0-0.2,0-0.4,0.2-0.5c0,0,0.1-0.1,0.1-0.1c0.1-0.1,0.1-0.2,0.1-0.3c0-0.4,0-0.4,0.3-0.5
	c0.1-0.1,0.3-0.1,0.4-0.2c0-0.3,0.2-0.5,0.4-0.7C3.4,8.3,3.5,8.2,3.6,8c-0.1-0.1-0.1-0.3,0-0.4C3.8,7.4,3.9,7.2,4.1,7
	c0.1-0.1,0.1-0.1,0.1-0.2c0-0.3,0-0.3,0.3-0.4c0.1,0,0.1,0.1,0.2,0.1C4.8,6.3,4.9,6.1,5.1,6c0-0.2,0.1-0.4,0.1-0.7
	C4.9,5.2,5,4.9,4.9,4.7c0-0.2,0-0.3-0.1-0.5c-0.2,0-0.4,0-0.5,0.1c-0.2,0-0.3,0.1-0.5,0c-0.1,0-0.1,0-0.2,0c-0.2,0-0.4,0-0.5-0.2
	C3.1,4,3.1,4,3.1,3.9c0-0.1,0-0.3,0.1-0.4C3.3,3.4,3.4,3.2,3.5,3c0.1-0.1,0.1-0.2,0.2-0.2C4,2.6,4.3,2.5,4.6,2.3
	c0.1-0.1,0.2-0.1,0.3-0.1c0.1,0,0.2,0,0.2-0.1C5.4,2,5.6,1.9,5.8,1.9c0,0,0,0,0.1,0c0.1-0.1,0-0.2,0.2-0.2C5.9,1.6,5.8,1.5,5.8,1.3
	c0,0-0.1,0-0.1-0.1c0-0.1,0.1-0.1,0.1-0.2c-0.1-0.1-0.2-0.2,0-0.3c0,0,0.1,0,0.2,0C6,0.6,6.1,0.5,6.2,0.4c0.1-0.1,0.2-0.2,0.3-0.3
	C6.6,0,6.6,0,6.7,0C6.9,0,7.1,0,7.4,0z"/>
<path class="st0" d="M0,15.7c2.8,0,5.7,0,8.5,0c0.1,0,0.1,0,0.2,0c0,0,0,0.1,0,0.1c0,0.6,0,1.2,0,1.8c0,0,0,0,0,0.1
	c-0.1,0.1-0.1,0-0.2,0c-0.9,0-1.7,0-2.6,0c-0.1,0-0.1,0-0.2,0c-0.1,0.1,0,0.1,0,0.2c0,0.5,0,1,0,1.4c0,2.2,0,4.3,0,6.5
	c0,0.1,0,0.2,0,0.3c-0.3,0-0.6,0-0.8,0c-0.3,0-0.6,0-0.8,0c-0.3,0-0.6,0-0.9,0c0-0.4,0-0.8,0-1.2c0-0.4,0-0.8,0-1.2
	c0-0.4,0-0.8,0-1.2c0-0.4,0-0.8,0-1.2s0-0.8,0-1.2c0-0.4,0-0.8,0-1.2c0-0.4,0-0.8,0-1.2c-1,0-2.1,0-3.1,0C0,17,0,16.3,0,15.7z"/>
<path class="st0" d="M0,10.4c0.2,0,0.3,0,0.5,0c0,0.2-0.1,0.1-0.2,0.1c0,0.1,0,0.3,0,0.4c0,0-0.1,0-0.1,0c0-0.1,0-0.3,0-0.4
	c0-0.1-0.1,0-0.1,0C0,10.4,0,10.4,0,10.4z"/>
<path class="st0" d="M22.7,37.9c1.1-3.6,2.1-7.2,3.2-10.8c0.1,0,3.6-0.1,3.9,0c0,0.4,0,0.8,0,1.2c0,0.4,0,0.8,0,1.2
	c0,0.4,0,0.8,0,1.2c0,0.4,0,0.8,0,1.2c0.1,0,0.2,0.1,0.3,0.1c0.5,0,1,0,1.6,0c0.4,0,0.8,0,1.2-0.1c0.7-0.1,1.4-0.2,2.1-0.4
	c0.9-0.3,1.8-0.6,2.6-1.2c0.8-0.6,1.4-1.4,1.8-2.3c0.1-0.3,0.2-0.5,0.2-0.8c0.1,0,5.9-0.1,6.1,0c0,0.2,0,0.5-0.1,0.7
	c0,0.3-0.1,0.6-0.2,0.9c-0.1,0.5-0.3,1-0.5,1.4c-0.2,0.6-0.5,1.1-0.9,1.7c-0.3,0.4-0.6,0.8-1,1.2c-0.2,0.2-0.4,0.4-0.6,0.5
	c-0.4,0.4-0.8,0.7-1.2,1c-0.8,0.5-1.6,1-2.4,1.4c-0.8,0.4-1.7,0.7-2.6,1c-0.8,0.2-1.6,0.4-2.5,0.6c-0.4,0.1-0.9,0.1-1.3,0.2
	c-0.4,0.1-0.8,0.1-1.2,0.1c-0.1,0-0.2,0-0.3,0c-2.7,0-5.3,0-8,0C22.8,38,22.8,38,22.7,37.9z"/>
<path class="st0" d="M109.8,27.2c2,0,4.1,0,6.1,0c0,0,0,0.1,0,0.1c0,0.7,0.2,1.4,0.4,2.1c0.2,0.7,0.6,1.4,1.1,2
	c0.5,0.6,1,1.1,1.7,1.4c0.5,0.2,0.9,0.3,1.4,0.3c0.9,0,1.7-0.3,2.4-0.8c0.7-0.5,1.1-1.1,1.5-1.8c0.4-0.7,0.6-1.4,0.7-2.1
	c0.1-0.4,0.1-0.7,0.1-1.1c0,0,0-0.1,0-0.1c0.1-0.1,0.1,0,0.2,0c0.5,0,1.1,0,1.6,0c1.5,0,3.1,0,4.6,0c0.1,0,0.2,0,0.2,0
	c0,0.2,0,0.3,0,0.5c0,0.3-0.1,0.6-0.1,0.9c-0.1,0.5-0.2,0.9-0.3,1.4c-0.2,0.8-0.5,1.6-0.9,2.3c-0.4,0.7-0.8,1.4-1.4,2.1
	c-0.4,0.4-0.8,0.8-1.2,1.2c-0.6,0.6-1.3,1-2.1,1.4c-0.7,0.4-1.4,0.7-2.1,0.9c-0.5,0.2-1.1,0.3-1.7,0.4c-0.8,0.1-1.6,0.1-2.3,0.1
	c-0.6,0-1.2-0.1-1.8-0.3c-0.8-0.2-1.5-0.5-2.2-0.8c-0.7-0.3-1.3-0.8-1.9-1.2c-0.4-0.4-0.9-0.7-1.2-1.2c-0.4-0.5-0.8-1-1.2-1.6
	c-0.2-0.4-0.5-0.7-0.6-1.1c-0.4-0.9-0.8-1.8-1-2.8c-0.1-0.5-0.2-0.9-0.2-1.4C109.8,27.6,109.8,27.4,109.8,27.2z"/>
<path class="st0" d="M132,26.1c-2.2,0-4.4,0-6.6,0c-0.1,0-0.1-0.1-0.1-0.1c-0.1-0.9-0.3-1.7-0.6-2.5c-0.2-0.5-0.5-1-0.9-1.4
	c-0.4-0.5-1-0.9-1.6-1.2c-0.4-0.2-0.8-0.3-1.2-0.3c-1.1-0.1-2,0.2-2.8,0.9c-0.8,0.6-1.3,1.4-1.7,2.2c-0.2,0.5-0.4,1-0.5,1.6
	c0,0.2-0.1,0.5-0.1,0.7c0,0.1,0,0.1-0.1,0.2c-2,0-4,0-6,0c0,0,0-0.1,0-0.1c0.1-1,0.3-2,0.6-3c0.3-0.9,0.7-1.7,1.2-2.5
	c0.4-0.6,0.8-1.2,1.3-1.7c0.6-0.6,1.2-1.1,1.9-1.6c0.9-0.6,1.8-1,2.8-1.3c0.6-0.2,1.1-0.3,1.7-0.4c0.7-0.1,1.3-0.1,2-0.1
	c0.8,0,1.6,0.2,2.4,0.4c0.8,0.2,1.6,0.5,2.4,0.9c0.5,0.3,1.1,0.6,1.6,1c0.3,0.3,0.6,0.5,0.9,0.8c0.5,0.5,0.9,1,1.3,1.5
	c0.4,0.6,0.8,1.1,1,1.8c0.4,0.9,0.7,1.9,0.9,2.9c0.1,0.4,0.1,0.9,0.2,1.3C132.1,26,132.1,26.1,132,26.1z"/>
<path class="st0" d="M45.5,26.1c-2,0-4,0-6,0c-0.1,0-0.1,0.1-0.1,0.2c0,0,0,0,0-0.1c0-0.5,0-0.9-0.2-1.3c-0.2-0.7-0.5-1.3-1-1.8
	c-0.6-0.6-1.3-1-2.1-1.3c-0.7-0.3-1.4-0.4-2.1-0.6c-0.4-0.1-0.7-0.1-1.1-0.1c-0.7-0.1-1.3-0.1-2-0.1c-0.4,0-0.8,0-1.2,0.1
	c0,0.4,0,0.8,0,1.3c0,0.4,0,0.8,0,1.3c0,0.4,0,0.8,0,1.3c0,0.4,0,0.8,0,1.2c0,0,0,0,0,0c0,0,0,0,0,0c0,0,0,0-0.1,0
	c-1.1,0-2.2,0-3.4,0c0,0,0,0-0.1,0c1-3.5,2.1-7,3.1-10.4c0.1,0,0.1,0,0.2,0c2.2,0,4.4,0,6.6,0c0.3,0,0.6,0.1,0.9,0.2
	c1,0.3,2,0.7,3,1.2c0.7,0.3,1.3,0.8,1.9,1.2c0.3,0.3,0.6,0.5,0.9,0.8c0.5,0.5,1,1.1,1.4,1.7c0.4,0.6,0.7,1.3,0.9,2
	c0.2,0.6,0.3,1.2,0.4,1.8c0.1,0.4,0.1,0.9,0.1,1.3C45.5,26,45.5,26.1,45.5,26.1z"/>
<path class="st0" d="M87.7,27.2c0.1,0,0.2,0,0.3,0c3.9,0,7.7,0,11.6,0c0.3,0,0.3,0,0.5,0.2c0.4,0.4,0.8,0.9,1,1.4
	c0.2,0.3,0.3,0.7,0.3,1c0.1,0.4,0.1,0.8,0,1.2c-0.1,1-0.3,1.9-0.7,2.8c-0.3,0.6-0.6,1.2-1.1,1.7c-0.5,0.6-1.1,1-1.7,1.4
	C97,37.5,96,37.8,95,38c-0.5,0.1-1,0.2-1.6,0.2c-0.6,0-1.2,0-1.8,0c-1-0.1-2-0.2-2.9-0.5c-1-0.3-1.8-0.8-2.6-1.5
	c-0.8-0.7-1.4-1.4-1.9-2.3c-0.4-0.7-0.7-1.5-0.9-2.3c0,0,0-0.1,0-0.1c0,0,0,0,0-0.1c0.8-0.2,1.6-0.4,2.4-0.6
	c0.8-0.2,1.6-0.4,2.4-0.6c0,0.2,0.1,0.4,0.1,0.6c0.2,0.8,0.6,1.6,1.2,2.1c0.3,0.3,0.7,0.5,1.1,0.6c0.4,0.1,0.8,0.2,1.3,0.3
	c0.3,0.1,0.7,0.1,1,0.1c0.5,0,1-0.1,1.4-0.3c0.4-0.2,0.7-0.5,0.9-0.9c0.2-0.3,0.3-0.6,0.3-0.9c0.1-0.5-0.1-1-0.4-1.4
	c-0.3-0.3-0.6-0.6-0.9-0.8c-0.7-0.5-1.6-0.8-2.4-1.1c-0.6-0.2-1.2-0.4-1.8-0.6c-0.6-0.2-1.3-0.4-1.9-0.6
	C87.9,27.3,87.8,27.2,87.7,27.2z"/>
<path class="st0" d="M100.7,21.6c-1.7,0.3-3.4,0.6-5.1,0.8c-0.1,0-0.1-0.1-0.1-0.2c-0.1-0.4-0.3-0.8-0.5-1.1
	c-0.2-0.4-0.5-0.8-0.8-1.1c-0.3-0.3-0.7-0.5-1.1-0.6c-0.4-0.1-0.7-0.1-1.1-0.1c-0.4,0-0.8,0.1-1.2,0.3c-0.4,0.2-0.7,0.5-0.8,1
	c-0.1,0.5-0.1,1,0.1,1.5c0.2,0.3,0.4,0.6,0.7,0.8c0.5,0.3,1,0.6,1.5,0.8c0.9,0.4,1.9,0.7,2.9,1.1c0.7,0.3,1.4,0.5,2.1,0.8
	c0.4,0.2,0.7,0.3,1,0.5c0,0-0.1,0-0.1,0c-0.2,0-0.4,0-0.5,0c-3.8,0-7.7,0-11.5,0c-0.2,0-0.3-0.1-0.4-0.2c-0.4-0.4-0.7-0.8-1-1.3
	c-0.4-0.8-0.7-1.6-0.9-2.5c-0.1-0.3,0-0.6,0-0.8c0.1-0.5,0.1-1,0.3-1.4c0.3-0.8,0.7-1.4,1.2-2c0.5-0.6,1.2-1.1,1.9-1.4
	c0.8-0.4,1.6-0.7,2.5-0.8c0.6-0.1,1.1-0.2,1.7-0.2c0.4,0,0.9,0,1.3,0c0.4,0,0.7,0,1.1,0.1c0.6,0.1,1.2,0.2,1.8,0.3
	c0.6,0.1,1.1,0.3,1.6,0.6c0.7,0.3,1.3,0.8,1.8,1.3c0.4,0.5,0.8,1,1,1.6c0.2,0.5,0.4,1,0.4,1.5C100.7,21,100.7,21.3,100.7,21.6z"/>
<path class="st0" d="M65.4,27.2c0.3,0,6,0,6.2,0c0,0.1,0,0.2-0.1,0.3c-0.3,1-0.7,2-1,3.1c-0.2,0.7-0.5,1.4-0.7,2.1
	c-0.4,1.1-0.7,2.3-1.1,3.4c-0.2,0.6-0.4,1.2-0.5,1.7c0,0.1,0,0.1-0.1,0.2c-2.4,0-4.9,0-7.3,0c-1.2-3.6-2.3-7.2-3.5-10.8
	c2.1,0,4.2,0,6.3,0c0.3,1,0.5,2,0.8,3C64.7,29.2,65,28.2,65.4,27.2z"/>
<path class="st0" d="M152.1,27.2c0,0.2,0,10.6,0,10.8c0,0,0,0,0,0c0,0,0,0,0,0c0,0,0,0-0.1,0c-2,0-4.1,0-6.1,0c0,0-0.1,0-0.1,0
	c-2.1-3.6-4.1-7.2-6.2-10.8C143.7,27.2,147.9,27.2,152.1,27.2z"/>
<path class="st0" d="M139,15.7c2.1,3.5,4.2,6.9,6.3,10.4c-0.2,0-12.5,0.1-12.7,0c0,0,0,0,0,0c0,0,0,0,0,0c0,0,0,0,0-0.1
	c0-3.4,0-6.8,0-10.3c0,0,0-0.1,0-0.1c0.1-0.1,0.1,0,0.2,0c0.4,0,0.9,0,1.3,0c1.6,0,3.1,0,4.7,0C138.8,15.7,138.9,15.6,139,15.7z"/>
<path class="st0" d="M132.6,37.9c0-3.6,0-7.2,0-10.8c0.1,0,6.1-0.1,6.4,0c0,0,0,0,0,0c0,0,0,0,0,0c0,0,0,0,0,0.1c0,3.5,0,7.1,0,10.6
	c0,0,0,0.1,0,0.1c-0.1,0.1-0.1,0-0.2,0c-0.6,0-1.2,0-1.8,0c-1.4,0-2.8,0-4.2,0C132.7,38,132.7,38,132.6,37.9z"/>
<path class="st0" d="M102.7,37.9c0-3.6,0-7.2,0-10.8c0.1,0,6.1-0.1,6.4,0c0,0,0,0,0,0c0,0,0,0,0,0c0,0,0,0,0,0.1c0,3.5,0,7,0,10.6
	c0,0,0,0,0,0.1c0,0,0,0,0,0C109,38,102.9,38,102.7,37.9z"/>
<path class="st0" d="M82.1,27.2c0,0.2,0,10.6,0,10.8c-0.1,0-6.2,0-6.4,0c0-0.1-0.1-10.5,0-10.8c0,0,0,0,0,0c0,0,0,0,0,0
	c0,0,0,0,0.1,0C77.9,27.1,79.9,27.1,82.1,27.2C82,27.1,82.1,27.2,82.1,27.2z"/>
<path class="st0" d="M46.7,27.2c2.1,0,4.3,0,6.4,0c0,0,0,0,0,0c0,0,0,0,0,0c0,0,0,0,0,0.1c0,3.5,0,7,0,10.6c0,0,0,0,0,0.1
	c0,0,0,0,0,0c-0.2,0-6.2,0-6.4,0C46.7,37.8,46.7,27.4,46.7,27.2z"/>
<path class="st0" d="M53.6,15.7c0.2,0,6.7,0,6.9,0c0,0,0.1,0.1,0.1,0.2c0.3,1.1,0.6,2.2,0.9,3.3c0.3,1.2,0.6,2.4,1,3.6
	c0.3,1,0.6,2.1,0.9,3.1c0,0.1,0.1,0.1,0,0.2c0,0,0,0,0,0c0,0,0,0,0,0c-0.1,0-0.1,0-0.2,0c-2,0-4.1,0-6.1,0c0,0,0,0-0.1,0
	C55.8,22.6,54.7,19.2,53.6,15.7z"/>
<path class="st0" d="M109.1,26.1c-2.1,0-4.3,0-6.4,0c0-0.1-0.1-10.2,0-10.4c0,0,0,0,0,0c0,0,0,0,0,0c0,0,0,0,0.1,0
	c2.1,0,4.1,0,6.2,0c0,0,0.1,0,0.1,0c0,0,0,0.1,0,0.1c0,0,0,0.1,0,0.1c0,3.3,0,6.6,0,9.9C109.2,26,109.2,26,109.1,26.1z"/>
<path class="st0" d="M53.1,26.1c-2.1,0-4.3,0-6.4,0c0,0,0,0,0,0c0,0,0,0,0,0c0,0,0-0.1,0-0.1c0-3.4,0-6.8,0-10.3c0,0,0,0,0-0.1
	c0,0,0,0,0,0c0,0,0,0,0,0c0,0,0,0,0.1,0c2.1,0,4.1,0,6.2,0c0,0,0.1,0,0.1,0c0.1,0,0,0.1,0,0.1c0,0,0,0.1,0,0.1c0,3.3,0,6.6,0,9.9
	C53.1,26,53.1,26,53.1,26.1z"/>
<path class="st0" d="M152.1,26.1c-2.1,0-4.3,0-6.4,0c0,0,0,0,0,0c0,0,0,0,0,0c0,0,0-0.1,0-0.1c0-3.4,0-6.8,0-10.3c0,0,0,0,0,0
	c0,0,0,0,0,0c0,0,0,0,0,0c0,0,0,0,0.1,0c2.1,0,4.1,0,6.2,0c0,0,0.1,0,0.1,0c0.1,0,0,0.1,0,0.1c0,0,0,0.1,0,0.1c0,3.3,0,6.6,0,10
	C152.1,26,152.1,26,152.1,26.1z"/>
<path class="st0" d="M75.7,26.1c0-3.5,0-6.9,0-10.4c0.1-0.1,0.2,0,0.2,0c1.8,0,3.6,0,5.4,0c0.2,0,0.4,0,0.6,0c0.1,0,0.1,0,0.2,0
	c0,0,0,0.1,0,0.1c0,0,0,0.1,0,0.1c0,3.3,0,6.6,0,9.9c0,0.1,0,0.2,0,0.2C81.9,26.1,75.9,26.2,75.7,26.1z"/>
<path class="st0" d="M75.2,15.7c0,0.1,0,0.1,0,0.2c-0.2,0.6-0.4,1.3-0.6,1.9c-0.3,1-0.6,2-1,3c-0.2,0.6-0.4,1.3-0.6,1.9
	c-0.3,1-0.6,2-1,3c0,0.1-0.1,0.2-0.1,0.3c-0.2,0-6,0-6.1,0c0,0,0-0.1,0-0.1c0.2-0.6,0.4-1.2,0.6-1.9c0.3-0.8,0.5-1.7,0.8-2.5
	c0.2-0.5,0.3-1.1,0.5-1.6c0.3-0.8,0.5-1.6,0.8-2.5c0.2-0.6,0.4-1.1,0.5-1.7c0,0,0-0.1,0-0.1c0,0,0,0,0,0c0,0,0,0,0,0c0,0,0,0,0.1,0
	c2,0,4,0,6,0C75.1,15.7,75.1,15.7,75.2,15.7C75.1,15.7,75.1,15.7,75.2,15.7z"/>
<path class="st0" d="M11.7,19.6c1.3,0,2.7,0,4,0c0.1-0.1,0-0.1,0-0.2c0-1.2,0-2.3,0-3.5c0-0.1,0-0.2,0-0.2c0.1,0,2.1-0.1,2.4,0
	c0,0,0,0.1,0,0.1c0,0.1,0,0.1,0,0.2c0,3.3,0,6.6,0,9.9c0,0.1,0,0.2,0,0.3c-0.4,0-0.8,0-1.2,0c-0.4,0-0.8,0-1.2,0
	c-0.1-0.1-0.1-0.2-0.1-0.3c0-1.3,0-2.6,0-3.8c0-0.1,0-0.1,0-0.2c-0.1,0-3.8,0-4,0c0,0.5,0,1,0,1.4c0,0.5,0,1,0,1.4c0,0.5,0,1,0,1.4
	c-0.2,0-2.3,0.1-2.5,0c0,0,0,0,0,0c0,0,0,0,0,0c0,0,0-0.1,0-0.1c0-3.4,0-6.8,0-10.2c0,0,0,0,0-0.1c0.1,0,2.3-0.1,2.5,0
	c0,0.6,0,1.3,0,1.9C11.7,18.3,11.7,18.9,11.7,19.6z"/>
<path class="st0" d="M21.5,24c1.2,0,2.4,0,3.5,0c0.1,0.1,0,0.1,0,0.2c-0.1,0.5-0.3,1-0.4,1.6c0,0.1,0,0.2-0.1,0.3
	c-0.1,0-5.2,0-5.5,0c0,0,0,0,0,0c0,0,0,0,0,0c0,0,0-0.1,0-0.1c0-3.4,0-6.8,0-10.3c0,0,0,0,0,0c0,0,0,0,0,0c0,0,0,0,0,0
	c0,0,0.1,0,0.1,0c2.7,0,5.4,0,8.1,0c0,0,0,0,0.1,0c-0.2,0.6-0.3,1.3-0.5,1.9c-0.3,0-0.5,0-0.8,0c-0.2,0-0.5,0-0.7,0
	c-0.3,0-0.5,0-0.8,0c-0.2,0-0.5,0-0.7,0c-0.3,0-0.5,0-0.8,0c-0.2,0-0.5,0-0.7,0c-0.3,0-0.5,0-0.8,0c0,0.2,0,1.8,0,2
	c1.6,0,3.1,0,4.8,0c-0.2,0.7-0.4,1.5-0.6,2.2c-1.4,0-2.7,0-4.1,0C21.5,21.9,21.5,23.6,21.5,24z"/>
<path class="st0" d="M93.7,11.5c0.1-0.5,0.1-1,0.2-1.5c0.1-0.1,0.2,0,0.3,0c1.7,0,3.5,0,5.2,0c0.1,0,0.1,0,0.2,0c0,0,0.1,0,0.1,0
	c0.1-0.1,0.1-0.2,0.1-0.3c0-0.1,0-0.2-0.1-0.3c-0.1,0-0.2,0-0.3,0c-1.4,0-2.8,0-4.3,0c-0.4,0-0.8-0.1-1.1-0.4
	c-0.3-0.2-0.5-0.5-0.5-0.9c-0.1-0.3,0-0.6,0-0.8c0-0.1,0-0.3,0-0.4c0.1-0.7,0.8-1.3,1.6-1.3c2,0,4,0,6.1,0c0.1,0,0.2,0,0.2,0
	c0,0.3-0.1,0.5-0.1,0.8c0,0.3-0.1,0.5-0.1,0.8c-0.1,0-0.2,0-0.3,0c-1.8,0-3.6,0-5.4,0c-0.3,0-0.4,0.1-0.4,0.4c0,0.2,0.1,0.2,0.2,0.2
	c0.4,0,0.7,0,1.1,0c1.1,0,2.2,0,3.3,0c0.4,0,0.8,0.1,1.1,0.3c0.4,0.3,0.6,0.7,0.6,1.2c0,0.3,0,0.5,0,0.8c0,0.7-0.6,1.3-1.2,1.5
	c-0.1,0-0.3,0-0.4,0c-1.9,0-3.8,0-5.8,0C93.9,11.5,93.8,11.6,93.7,11.5z"/>
<path class="st0" d="M39.5,5.5c0,0.1,0,5.8,0,5.9c0,0-0.1,0-0.1,0c-0.5,0-0.9,0-1.4,0c0,0-0.1,0-0.1-0.1c0-0.5,0-1,0-1.6
	c0-0.5,0-1.1,0-1.6c-0.1,0.2-0.2,0.3-0.3,0.5c-0.4,0.6-0.8,1.3-1.3,2c-0.1,0.2-0.3,0.4-0.4,0.7c0,0.1-0.1,0.1-0.2,0.1
	c-0.6,0-1.2,0-1.7,0c-0.7-1.1-1.4-2.1-2.1-3.2c0,1.1,0,2.1,0,3.1c-0.2,0-1.3,0.1-1.6,0c-0.1-0.1,0-0.1,0-0.2c0-0.7,0-1.4,0-2
	c0-1.2,0-2.3,0-3.5c0-0.1,0-0.2,0-0.2c0.1,0,1.4-0.1,1.8,0C32.5,6.3,33,7,33.4,7.7c0.5,0.7,1,1.5,1.4,2.2c0.1,0,0.1,0,0.1-0.1
	c0.5-0.7,0.9-1.4,1.4-2.2c0.3-0.5,0.7-1,1-1.5c0.1-0.2,0.2-0.3,0.3-0.5c0-0.1,0.1-0.1,0.2-0.1C38.4,5.5,38.9,5.5,39.5,5.5
	C39.5,5.5,39.5,5.5,39.5,5.5z"/>
<path class="st0" d="M21.6,5.5c0.1,0,0.1,0,0.2,0c2,0,4.1,0,6.1,0c0.8,0,1.5,0.6,1.6,1.4c0,0.1,0,0.1,0,0.2c0,1,0,2,0,2.9
	c0,0.7-0.6,1.4-1.4,1.5c-0.2,0-0.4,0-0.6,0c-1.4,0-2.8,0-4.2,0c-0.4,0-0.8-0.1-1.1-0.3c-0.4-0.3-0.6-0.7-0.6-1.2c0-0.7,0-1.3,0-2
	c0-0.7,0-1.5,0-2.2C21.6,5.7,21.6,5.6,21.6,5.5z M23.3,9.9c0.1,0,0.2,0,0.2,0c1.3,0,2.7,0,4,0c0.1,0,0.1,0,0.2,0
	c0.1,0,0.1-0.1,0.2-0.2c0,0,0-0.1,0-0.1c0-0.7,0-1.5,0-2.2c0,0,0-0.1,0-0.1c0-0.1-0.1-0.2-0.2-0.2c0,0-0.1,0-0.1,0
	c-1.4,0-2.8,0-4.2,0c0,0-0.1,0-0.2,0c0,0,0,0,0,0.1c0,0.8,0,1.7,0,2.5C23.2,9.8,23.3,9.8,23.3,9.9z"/>
<path class="st0" d="M71.4,9.4c0-1.3,0-2.6,0-3.9c0.2,0,1.4,0,1.6,0c0,0,0,0,0,0c0,0,0,0,0,0c0,0,0,0.1,0,0.1c0,1.9,0,3.9,0,5.8
	c0,0,0,0,0,0.1c0,0-0.1,0-0.2,0c-0.4,0-0.8,0-1.3,0c-0.1,0-0.2,0-0.3-0.1c-0.5-0.4-0.9-0.8-1.4-1.2c-0.5-0.4-0.9-0.8-1.4-1.2
	c-0.6-0.5-1.2-1-1.8-1.5c0,0.2,0,0.4,0,0.6c0,0.2,0,0.4,0,0.7c0,0.2,0,0.4,0,0.6c0,0.2,0,0.4,0,0.6c0,0.2,0,0.4,0,0.7
	c0,0.2,0,0.4,0,0.6c-0.2,0-1.4,0-1.6,0c0,0,0,0,0,0c0,0,0,0,0,0c0,0,0-0.1,0-0.1c0-1.9,0-3.8,0-5.8c0,0,0,0,0,0c0,0,0.1,0,0.1,0
	c0.4,0,0.9,0,1.3,0c0.1,0,0.2,0,0.2,0.1c0.3,0.2,0.6,0.5,0.9,0.7c0.4,0.3,0.8,0.6,1.2,1c0.3,0.2,0.6,0.5,0.9,0.7
	c0.4,0.3,0.7,0.6,1.1,0.9C71,9.1,71.2,9.2,71.4,9.4z"/>
<path class="st0" d="M73.9,5.5c0.3,0,7.7,0,7.9,0c0,0.5-0.1,1-0.2,1.5c-0.4,0-0.8,0-1.2,0c-0.4,0-0.8,0-1.2,0c-0.4,0-0.8,0-1.2,0
	c-0.4,0-0.8,0-1.2,0c-0.4,0-0.8,0-1.2,0c0,0.1,0,0.1,0,0.2c0,0.8,0,1.6,0,2.4c0,0.1,0,0.2,0.1,0.3c2,0,3.9,0,5.9,0
	c0.1,0.5,0.2,1.1,0.2,1.6c-0.1,0.1-0.1,0.1-0.2,0.1c-2,0-4,0-6,0c-0.4,0-0.8-0.1-1.1-0.4c-0.3-0.2-0.5-0.5-0.6-0.9
	c0-0.1,0-0.3,0-0.4c0-1.4,0-2.7,0-4.1C73.9,5.7,73.9,5.6,73.9,5.5z"/>
<path class="st0" d="M42.4,5.5c0.2,0,7.7,0,7.9,0c-0.1,0.5-0.1,1-0.2,1.5c-2,0-4,0-6,0C44,7.2,44,7.2,44,7.3c0,0.8,0,1.6,0,2.4
	c0,0,0,0.1,0,0.1c0,0.1,0.1,0.1,0.2,0.1c0.1,0,0.1,0,0.2,0c1.8,0,3.6,0,5.5,0c0.1,0,0.2,0,0.2,0c0,0,0.1,0.1,0.1,0.1
	c0.1,0.5,0.2,1,0.2,1.4c-0.1,0.1-0.1,0-0.2,0c-2,0-4,0-6,0c-0.4,0-0.8-0.1-1.1-0.4c-0.3-0.3-0.5-0.7-0.5-1.1c0-0.9,0-1.8,0-2.8
	c0-0.5,0-1,0-1.5C42.4,5.7,42.4,5.6,42.4,5.5z"/>
<path class="st0" d="M57.8,11.5c-0.3,0-1.8,0-1.9,0c0.1-0.2,0.2-0.3,0.3-0.5c0.8-1.2,1.5-2.3,2.3-3.5c0.2-0.3,0.5-0.7,0.7-1
	c0.2-0.3,0.4-0.5,0.6-0.6c0.3-0.2,0.5-0.2,0.8-0.3c0.2,0,0.4,0,0.6,0c0.9,0,1.8,0,2.7,0c0.1,0,0.2,0,0.2,0c0,0.1,0,5.8,0,6
	c-0.1,0-1.3,0.1-1.6,0c0-0.2,0-0.3,0-0.5c0-0.2,0-0.4,0-0.5c0-0.2,0-0.3,0-0.5c-0.1,0-3.5,0-3.8,0C58.5,10.5,58.1,11,57.8,11.5z
	 M62.6,7.1c-0.1,0-0.1,0-0.2,0c-0.5,0-0.9,0-1.4,0c-0.3,0-0.5,0.1-0.6,0.3c-0.2,0.3-0.4,0.6-0.6,0.9c0,0,0,0,0,0.1
	c0.4,0,2.6,0,2.7,0C62.6,7.9,62.6,7.5,62.6,7.1z"/>
<path class="st0" d="M20.9,5.5c0,0.5,0,1,0,1.5c-0.2,0-0.4,0-0.6,0c-0.2,0-0.4,0-0.6,0c-0.2,0-0.4,0-0.6,0c-0.2,0-0.4,0-0.6,0
	c-0.2,0-0.4,0-0.6,0c-0.1,0.1,0,0.2,0,0.2c0,1.3,0,2.6,0,3.9c0,0.1,0,0.2,0,0.2c-0.1,0-1.4,0.1-1.6,0c0-0.4,0-0.7,0-1.1
	c0-0.4,0-0.7,0-1.1c0-0.4,0-0.7,0-1.1c0-0.4,0-0.7,0-1.1c-0.1-0.1-0.2,0-0.2,0c-0.9,0-1.8,0-2.7,0c-0.1,0-0.2,0-0.2,0
	c0-0.1,0-1.3,0-1.5c0,0,0,0,0,0c0,0,0,0,0,0c0.1,0,0.1,0,0.2,0C15.8,5.5,18.3,5.5,20.9,5.5C20.8,5.5,20.9,5.5,20.9,5.5z"/>
<path class="st0" d="M90.4,5.6c-0.1,0.2-0.2,0.3-0.4,0.5c-0.4,0.5-0.8,0.9-1.2,1.4c-0.4,0.5-0.9,1-1.3,1.5c0,0,0,0,0,0
	c-0.3,0.2-0.3,0.5-0.3,0.8c0,0.5,0,1.1,0,1.6c0,0.1,0,0.1,0,0.2c-0.1,0-1.4,0.1-1.6,0c-0.1-0.1,0-0.1,0-0.2c0-0.6,0-1.3,0-1.9
	c0-0.1,0-0.2-0.1-0.3c-0.3-0.3-0.6-0.7-0.9-1c-0.4-0.4-0.7-0.8-1.1-1.3c-0.3-0.3-0.6-0.7-0.9-1c0-0.1-0.1-0.1-0.1-0.2
	c0-0.1,0.1,0,0.1,0c0.6,0,1.2,0,1.8,0c0.1,0,0.2,0,0.2,0.1c0.4,0.5,0.8,1,1.3,1.5c0.2,0.2,0.3,0.4,0.5,0.6c0.1-0.1,0.2-0.3,0.4-0.4
	c0.4-0.4,0.7-0.8,1.1-1.3c0.1-0.1,0.2-0.3,0.3-0.4c0.1-0.1,0.1-0.1,0.2-0.1c0.6,0,1.2,0,1.8,0C90.4,5.5,90.4,5.5,90.4,5.6z"/>
<path class="st0" d="M56.4,10c-0.3,0.5-0.7,1-1,1.5c-0.2,0-4.2,0-4.4,0c0-0.1,0-5.8,0-6c0.1,0,1.3-0.1,1.6,0c0.1,0.1,0,0.1,0,0.2
	c0,1.2,0,2.3,0,3.5c0,0.2,0,0.3,0,0.5c0,0.1,0,0.1,0,0.2c0.6,0,1.2,0,1.8,0C55.2,9.9,55.8,9.9,56.4,10C56.4,9.9,56.4,9.9,56.4,10z"
	/>
<path class="st0" d="M93.4,5.6c-0.5,0.6-1,1.2-1.5,1.8c-0.4,0-0.8,0-1.2,0c-0.1-0.1,0-0.1,0-0.2c0-0.2,0-0.5,0-0.7
	c0-0.1,0-0.2,0.1-0.3C91,6,91.1,5.8,91.3,5.6c0.1-0.1,0.1-0.1,0.2-0.1c0.6,0,1.2,0,1.8,0C93.3,5.5,93.4,5.5,93.4,5.6z"/>
<path class="st0" d="M154.8,17.1c-0.1,0-0.2,0-0.3,0c-0.1-0.3-0.2-0.6-0.3-0.9c-0.1,0.3-0.1,0.6-0.1,1c-0.1,0.1-0.2,0-0.3,0
	c-0.1-0.2,0-1,0.1-1.5c0.1,0,0.3,0,0.5,0c0.1,0.3,0.2,0.6,0.3,0.9c0.1-0.3,0.2-0.6,0.3-0.9c0.2,0,0.3,0,0.5,0c0,0.5,0.1,1,0.1,1.5
	c-0.1,0-0.2,0-0.4,0c0-0.3,0-0.6,0-1C154.9,16.5,154.9,16.8,154.8,17.1z"/>
<path class="st0" d="M153.6,15.7c0,0.1,0,0.2,0,0.3c-0.1,0.1-0.3,0-0.4,0.1c0,0.4,0,0.8,0,1.2c-0.1,0-0.2,0-0.3,0c0-0.2,0-0.4,0-0.6
	c0-0.2,0-0.4,0-0.6c-0.1-0.1-0.3,0-0.4-0.1c-0.1-0.1,0-0.2,0-0.3C152.9,15.6,153.2,15.7,153.6,15.7z"/>
<path class="st0" d="M0.9,10.7c0.1-0.1,0.1-0.2,0.1-0.3c0,0,0.1,0,0.2,0c0.1,0.2,0.1,0.4,0.1,0.5c0,0.1-0.1,0.1-0.1,0
	c-0.1-0.1,0-0.2,0-0.3c-0.1,0,0,0.1-0.1,0.1c0,0,0,0.1-0.1,0.1c-0.1,0-0.1,0-0.2,0c0-0.1-0.1-0.2-0.1-0.3c0,0.1,0,0.2,0,0.3
	c0,0-0.1,0-0.1,0c0-0.2,0-0.4,0-0.5c0.1-0.1,0.1,0,0.2,0C0.8,10.5,0.8,10.5,0.9,10.7z"/>
</svg>
