<?xml version="1.0" encoding="utf-8"?>
<!-- Generator: Adobe Illustrator 19.0.0, SVG Export Plug-In . SVG Version: 6.00 Build 0)  -->
<svg version="1.1" id="Layer_1" xmlns="http://www.w3.org/2000/svg" xmlns:xlink="http://www.w3.org/1999/xlink" x="0px" y="0px"
	 viewBox="0 0 53.9 57.6" style="enable-background:new 0 0 53.9 57.6;" xml:space="preserve">
<style type="text/css">
	.st0{fill:#14C6E1;}
	.st1{fill:#14C6E1;stroke:#FF6800;stroke-miterlimit:10;}
</style>
<path id="XMLID_1_" class="st0" d="M53.9,37.2L53.9,37.2c0-0.1,0-0.2,0-0.3c0-5-3.3-9.2-7.7-10.4c3.8-1,6.5-4.7,6-9
	c-0.5-3.7-3.5-6.6-7.2-7.1c-4.9-0.5-9.1,3.3-9.1,8.1c0,3.6,2.3,6.7,5.6,7.7c-4.7,1-8.3,5.3-8.3,10.5c0,0.1,0,0.2,0,0.3h0v8.9h20.8
	V37.2z"/>
<path id="XMLID_2_" class="st0" d="M20.8,37.2L20.8,37.2c0-0.1,0-0.2,0-0.3c0-5-3.3-9.2-7.7-10.4c3.8-1,6.5-4.7,6-9
	c-0.5-3.7-3.5-6.6-7.2-7.1c-4.9-0.5-9.1,3.3-9.1,8.1c0,3.6,2.3,6.7,5.6,7.7C3.6,27.4,0,31.7,0,36.9c0,0.1,0,0.2,0,0.3h0v8.9h20.8
	V37.2z"/>
<path id="XMLID_3_" class="st1" d="M43.5,43L43.5,43c0-0.2,0-0.3,0-0.5c0-7.9-5.2-14.5-12.3-16.5c6-1.6,10.3-7.5,9.4-14.2
	C39.9,5.9,35.1,1.2,29.2,0.6c-7.8-0.9-14.4,5.2-14.4,12.9c0,5.7,3.7,10.6,8.8,12.3c-7.5,1.6-13.2,8.5-13.2,16.7c0,0.2,0,0.3,0,0.5h0
	v14.2h33V43z"/>
</svg>
