<?xml version="1.0" encoding="utf-8"?>
<!-- Generator: Adobe Illustrator 19.0.0, SVG Export Plug-In . SVG Version: 6.00 Build 0)  -->
<svg version="1.1" id="Layer_1" xmlns="http://www.w3.org/2000/svg" xmlns:xlink="http://www.w3.org/1999/xlink" x="0px" y="0px"
	 viewBox="0 0 120 120" style="enable-background:new 0 0 120 120;" xml:space="preserve">
<style type="text/css">
	.st0{fill:#00C1DE;}
</style>
<path class="st0" d="M90.6,81.2l14.6-14.6l-9.4-9.4l-13,13c-8.5-8.5-19.2-19.2-29.9-29.9C41.2,28.7,29.6,17.1,20.8,8.3
	c-0.5-0.6-1.1-1-1.5-1.7c-0.2-0.3-0.4-0.6-0.7-0.9c-0.3-0.2-0.6-0.4-1-0.6c-1.5-0.5-2.9-1-4.2-1.5c-2.7-0.9-5-1.6-7-2.2
	C4.5,1,2.9,0.6,1.7,0.4c-0.6-0.1-1-0.2-1.3-0.3C0.2,0,0,0,0,0s0,0.2,0.1,0.4c0.1,0.3,0.1,0.7,0.3,1.3C0.6,2.9,1,4.5,1.6,6.5
	c0.5,2,1.3,4.4,2.2,7c0.5,1.3,1,2.7,1.5,4.2c0.1,0.4,0.3,0.7,0.6,1c0.2,0.3,0.6,0.5,0.9,0.7c0.6,0.4,1.1,1,1.7,1.5
	c8.7,8.7,20.4,20.4,32.1,32.1c10.7,10.7,21.4,21.4,29.9,29.9l-13,13l9.4,9.4l14.6-14.6l29.4,29.4l9.4-9.4L90.6,81.2z M76.9,78
	L15.2,14.3L79,76L76.9,78z"/>
</svg>
