<?xml version="1.0" encoding="utf-8"?>
<!-- Generator: Adobe Illustrator 19.0.0, SVG Export Plug-In . SVG Version: 6.00 Build 0)  -->
<svg version="1.1" id="Layer_1" xmlns="http://www.w3.org/2000/svg" xmlns:xlink="http://www.w3.org/1999/xlink" x="0px" y="0px"
	 viewBox="0 0 101.5 34.1" style="enable-background:new 0 0 101.5 34.1;" xml:space="preserve">
<style type="text/css">
	.st0{fill:#F3F4F4;}
</style>
<g id="jS9bIw.tif">
	<g>
		<path class="st0" d="M0,3.7c0.2-0.8,0.4-1.5,1-2.1c0.8-1,1.9-1.5,3.2-1.6c2.1-0.1,3.8,1.4,4.3,3.1c0.7,2.7-1.1,5.1-3.5,5.4
			C2.5,8.8,0.5,7.3,0,5c0,0,0-0.1,0-0.1C0,4.4,0,4.1,0,3.7z M3.1,1.9c-0.4,0-0.7,0.3-0.7,0.7c0,0.4,0.3,0.7,0.7,0.7
			c0.3,0,0.7-0.4,0.7-0.7C3.8,2.2,3.5,1.9,3.1,1.9z"/>
		<path class="st0" d="M22.2,9.2c0.3-0.2,0.3-0.4,0-0.6c-0.4-0.3-0.9-0.5-1.4-0.6c-0.2,0-0.3,0-0.3,0.2c0,0.2-0.1,0.4,0.1,0.4
			c0,0,0,0,0,0c0.1,0.1,0.4,0.1,0.3,0.3c-0.1,0.2-0.3,0.1-0.4,0c-0.7-0.3-1.5-0.5-2.3-0.6C17.4,8.1,16.6,8,15.8,8
			c-0.1,0-0.1,0-0.2,0.1c0.1,0.1,0.2,0.1,0.3,0.1c0.4,0.2,0.9,0.3,1.3,0.5c0.2,0.1,0.2,0.1,0,0.2c-0.3,0.2-0.7,0.4-1,0.6
			c-0.2,0.1-0.3,0.1-0.5,0c-0.6-0.1-1.2-0.3-1.6-0.6c-0.4-0.2-0.8-0.3-1.3-0.3c-0.3,0-0.7,0-1-0.2c-0.5-0.3-1-0.5-1.5-0.7
			C10.2,7.7,10,7.7,9.9,8C9.7,8.4,9.3,8.5,8.9,8.3C8.7,8.2,8.8,8.1,8.9,8c0.4-0.5,0.7-1,0.9-1.5c0.7-1.7,0.6-3.3-0.2-5
			C9.3,1.2,9.3,1.2,9.7,1.1c1.5-0.3,3-0.5,4.6-0.6c2.1-0.2,4.2-0.2,6.3-0.1c4.1,0.1,8.1,0.8,11.9,2.3c1,0.4,1.9,0.9,2.8,1.5
			c0.2,0.1,0.3,0.3,0.3,0.5c0.1,1.3,0.1,2.5,0,3.8c-0.2,1.8-0.5,3.7-1,5.4c-0.4,1.2-0.8,2.4-1.3,3.6c-0.1,0.1-0.1,0.3-0.2,0.4
			C33.1,18,33,18,33,17.9c-0.3-1.2-1.1-2-2-2.7c-1-0.8-2.2-1.2-3.4-1.4c-0.8-0.1-1.5,0-2.1,0.5c-0.1,0.1-0.2,0.1-0.3,0.1
			c-0.1,0-0.4,0-0.4-0.2C24.8,14,25,14,25.1,13.9c0.4-0.3,0.8-0.5,1.3-0.7c0.2-0.1,0.2-0.2,0-0.3c-0.4-0.3-0.8-0.4-1.3-0.4
			c-0.4,0-0.4,0-0.2-0.4c0.1-0.1,0-0.2-0.1-0.3c-0.2-0.2-0.3-0.3-0.5-0.5c-0.5-0.4-0.8-1-1.1-1.5C23,9.5,22.7,9.3,22.2,9.2z"/>
		<path class="st0" d="M31.4,21.1c0,0.4-0.1,0.7-0.3,1c-1.6,2.7-3.4,5.3-5.7,7.4c-0.2,0.2-0.4,0.4-0.6,0.6c0,0-0.1,0.1-0.2,0.1
			c0,0,0-0.1,0-0.1c0-1.6-0.8-2.8-1.8-3.9c-1.6-1.9-3.6-3.3-5.8-4.5c-2.4-1.3-5-2.3-7.7-2.8c-1.1-0.2-2.2-0.4-3.3-0.7
			c-0.6-0.2-1.3-0.4-1.9-0.8c-1.2-0.7-1.9-1.7-2.3-2.9c-0.4-1.5-0.8-3.1-1-4.7c0-0.2-0.1-0.4,0-0.6c0.1-0.1,0.3,0.1,0.4,0.2
			c1.8,0.9,3.7,1,5.5,0.1c0.3-0.1,0.4-0.1,0.4,0.2c0.1,0.4,0.1,0.7,0,1.1c-0.2,1,0.2,1.7,1.1,2.2c0.8,0.5,1.5,0.6,2.3,0.1
			c0.2-0.1,0.3-0.1,0.5,0c0.1,0.1,0.3,0.1,0.5,0.2c0.2,0,0.3,0.1,0.2,0.4c-0.1,0.3-0.1,0.7-0.1,1c0.2,1.1,1.3,2.3,2.5,2.3
			c1,0,1.7-0.5,2.3-1.2c0.2-0.2,0.3-0.5,0.4-0.7c0.1-0.2,0.2-0.2,0.3-0.1c0.3,0.2,0.7,0.5,1.1,0.4c0.6-0.2,1.1,0.1,1.5,0.4
			c0.7,0.4,1.3,0.7,2.1,0.9c0.2,0.1,0.3,0.2,0.3,0.4c0,0.6,0.3,1,0.8,1.3c0.5,0.3,1.1,0.6,1.7,0.3c0.3-0.1,0.6-0.3,0.8-0.6
			c0.1-0.1,0.2-0.1,0.3,0c1,1.1,2.3,1.6,3.8,1.6c0.3,0,0.6,0,0.9,0.2C31.2,20.2,31.4,20.6,31.4,21.1z"/>
		<path class="st0" d="M6.6,20.8c1.8,0.1,3.5,0.3,5.1,0.7c3,0.7,5.9,1.8,8.5,3.6c1.1,0.8,2.2,1.6,3,2.7c0.3,0.5,0.6,1,0.7,1.6
			c0.1,0.8-0.1,1.4-0.7,1.9c-0.9,0.7-1.9,1.3-2.9,1.8c-0.6,0.3-1.2,0.6-1.7,0.9c-0.2,0.1-0.4,0.1-0.6,0c-3.1-1.3-5.7-3.2-8-5.6
			c-1.8-1.9-3.3-4-4.6-6.3c-0.3-0.6-0.2-1,0.4-1.2C6.1,20.8,6.4,20.8,6.6,20.8z"/>
		<path class="st0" d="M55.4,16.8c-3.5,0-6.3-2.9-6.3-6.4c0-3.5,2.8-6.4,6.4-6.4c3.5,0,6.4,2.8,6.4,6.4
			C61.8,14.1,58.8,16.9,55.4,16.8z M55.4,8.3c-1.2,0-2.3,1-2.3,2.2c0,1.2,1,2.2,2.2,2.2c1.3,0,2.3-1,2.3-2.2
			C57.7,9.2,56.7,8.3,55.4,8.3z"/>
		<path class="st0" d="M42.3,12.7c0,1.1,0,2.2,0,3.2c0,0.7,0.1,0.6-0.6,0.6c-1,0-2.1,0-3.1,0c-0.3,0-0.4-0.1-0.4-0.4
			c0-3.8,0-7.7,0-11.5c0-0.3,0.1-0.4,0.4-0.4c2,0,4.1,0,6.1,0c2.3,0,4,1.8,3.9,4.1c0,1.1-0.4,2.2-1.4,2.9c-0.2,0.2-0.4,0.3-0.7,0.4
			c-0.3,0.1-0.3,0.1-0.2,0.4c0.6,1,1.2,1.9,1.8,2.9c0.3,0.4,0.6,0.9,0.8,1.3c0.1,0.1,0.2,0.2,0.1,0.3c-0.1,0.1-0.2,0.1-0.3,0.1
			c-1.3,0-2.6,0-3.8,0c-0.3,0-0.4-0.1-0.5-0.3c-0.7-1.1-1.4-2.2-2-3.4C42.4,12.9,42.4,12.8,42.3,12.7C42.3,12.7,42.3,12.7,42.3,12.7
			z M42.9,10.2c0.1,0,0.1,0,0.2,0c0.8,0,1.3-0.5,1.3-1.3c0-0.8-0.5-1.3-1.3-1.3c-0.2,0-0.4,0-0.6,0c-0.2,0-0.3,0.1-0.3,0.3
			c0,0.6,0,1.1,0,1.7C42.3,10.3,42.2,10.2,42.9,10.2z"/>
		<path class="st0" d="M77.4,22.4c0.9,0,1.8,0,2.7,0c0.2,0,0.3,0,0.3,0.2c0,1,0.1,2-0.2,3c-0.6,2.4-2.4,4-5,4.3
			c-2.6,0.3-4.7-0.7-6.1-2.9c-2.4-3.7-0.2-8.9,4.2-9.7c2.3-0.4,4.3,0.1,6.1,1.7c0.3,0.3,0.3,0.3,0,0.6c-0.8,0.7-1.6,1.5-2.3,2.2
			c-0.2,0.2-0.3,0.2-0.5,0c-0.9-1-3-0.9-4,0.3c-0.9,1.2-0.7,3.1,0.6,4c0.8,0.6,2.1,0.6,2.8-0.1c0.1-0.1,0.1-0.2,0.2-0.2
			c0.1-0.1,0.1-0.1,0.1-0.2c0-0.1-0.2-0.1-0.2-0.1c-0.4,0-0.8,0-1.2,0c-0.2,0-0.3-0.1-0.3-0.3c0-0.8,0-1.6,0-2.4
			c0-0.3,0.1-0.4,0.3-0.3c0,0,0,0,0,0C75.6,22.4,76.5,22.4,77.4,22.4z"/>
		<path class="st0" d="M92,21.3c0,1.1,0,2.1,0,3.2c0,3.3-2.8,5.8-6.1,5.4c-2.5-0.3-4.5-2.2-4.8-4.7c0-0.3-0.1-0.6-0.1-0.9
			c0-2.1,0-4.3,0-6.4c0-0.4,0-0.4,0.4-0.4c1.1,0,2.2,0,3.3,0c0.4,0,0.4,0,0.4,0.4c0,2.2,0,4.4,0,6.5c0,0.9,0.6,1.4,1.5,1.4
			c0.6,0,1.2-0.6,1.2-1.2c0-0.6,0-1.1,0-1.7c0-1.7,0-3.4,0-5.1c0-0.4,0-0.4,0.4-0.4c1.1,0,2.2,0,3.3,0c0.4,0,0.4,0,0.4,0.4
			C92,19,92,20.2,92,21.3C92,21.3,92,21.3,92,21.3z"/>
		<path class="st0" d="M75.9,12.7c-0.1,0.1,0,0.2,0,0.3c0,1.1,0,2.1,0,3.2c0,0.3-0.1,0.4-0.4,0.4c-1.1,0-2.3,0-3.4,0
			c-0.3,0-0.4-0.1-0.4-0.4c0-3.9,0-7.7,0-11.6c0-0.2,0.1-0.3,0.3-0.3c1.2,0,2.3,0,3.5,0c0.2,0,0.3,0.1,0.3,0.3c0,1.1,0,2.2,0,3.2
			c0,0.1,0,0.2,0,0.3c0.1,0,0.1-0.1,0.2-0.2c0.7-1.2,1.4-2.3,2.1-3.5c0.1-0.2,0.3-0.3,0.5-0.3c1.3,0,2.6,0,3.8,0
			c0.1,0,0.2,0,0.3,0.1c0.1,0.1-0.1,0.2-0.1,0.3c-1.2,1.8-2.4,3.7-3.6,5.5c-0.2,0.2-0.2,0.4,0,0.7c1.2,1.8,2.4,3.6,3.7,5.5
			c0.1,0.1,0.2,0.2,0.1,0.3c-0.1,0.1-0.2,0-0.3,0c-1.3,0-2.6,0-3.9,0c-0.2,0-0.4-0.1-0.5-0.3c-0.7-1.1-1.4-2.3-2.1-3.4
			C76.1,12.9,76,12.8,75.9,12.7z"/>
		<path class="st0" d="M62.9,17.5c0.5,0,1.1,0,1.6,0c0.3,0,0.5,0.1,0.6,0.4c0.8,2.5,1.7,5,2.5,7.5c0.4,1.3,0.9,2.7,1.3,4
			c0.1,0.3,0.1,0.3-0.2,0.3c-1.1,0-2.3,0-3.4,0c-0.3,0-0.4-0.1-0.4-0.3c-0.1-0.4-0.2-0.8-0.3-1.2c0-0.2-0.1-0.3-0.3-0.3
			c-0.9,0-1.7,0-2.6,0c-0.2,0-0.3,0.1-0.4,0.3c-0.1,0.4-0.2,0.8-0.3,1.2c0,0.2-0.1,0.3-0.4,0.3c-1.2,0-2.4,0-3.6,0
			c-0.3,0-0.3-0.1-0.2-0.3c1.3-3.9,2.6-7.8,3.9-11.7c0.1-0.2,0.2-0.3,0.4-0.3C61.7,17.5,62.3,17.5,62.9,17.5z M62.9,21.6
			C62.9,21.6,62.8,21.5,62.9,21.6c-0.3,1-0.5,2-0.8,3c0,0.2,0,0.2,0.2,0.2c0.4,0,0.7,0,1.1,0c0.2,0,0.3-0.1,0.2-0.2
			C63.4,23.5,63.1,22.5,62.9,21.6z"/>
		<path class="st0" d="M92.8,23.6c0-1.9,0-3.8,0-5.7c0-0.4,0-0.4,0.4-0.4c2.6,0,5.2,0,7.8,0c0.4,0,0.4,0,0.4,0.4c0,0.8,0,1.7,0,2.5
			c0,0.3-0.1,0.3-0.3,0.3c-1.3,0-2.5,0-3.8,0c-0.3,0-0.4,0.1-0.4,0.4c0,0.2,0,0.4,0,0.6c0,0.3,0.1,0.3,0.3,0.3c1,0,1.9,0,2.9,0
			c0.4,0,0.4,0,0.4,0.4c0,0.8,0,1.6,0,2.4c0,0.4,0,0.4-0.4,0.4c-1,0-1.9,0-2.9,0c-0.3,0-0.4,0.1-0.3,0.3c0,0.2,0,0.4,0,0.7
			c0,0.2,0.1,0.3,0.3,0.3c1.3,0,2.5,0,3.8,0c0.4,0,0.4,0,0.4,0.4c0,0.8,0,1.7,0,2.5c0,0.3-0.1,0.3-0.3,0.3c-2.7,0-5.3,0-8,0
			c-0.3,0-0.3-0.2-0.3-0.4C92.8,27.4,92.8,25.5,92.8,23.6z"/>
		<path class="st0" d="M47.6,23.6c0-1.9,0-3.8,0-5.7c0-0.4,0-0.4,0.4-0.4c2.6,0,5.2,0,7.9,0c0.4,0,0.4,0,0.4,0.4c0,0.8,0,1.7,0,2.5
			c0,0.3-0.1,0.4-0.4,0.4c-1.3,0-2.5,0-3.8,0c-0.3,0-0.4,0.1-0.4,0.4c0,0.2,0,0.4,0,0.6c0,0.2,0.1,0.3,0.3,0.3c1,0,1.9,0,2.9,0
			c0.4,0,0.4,0,0.4,0.4c0,0.8,0,1.6,0,2.5c0,0.4,0,0.4-0.4,0.4c-1,0-1.9,0-2.9,0c-0.3,0-0.4,0.1-0.4,0.4c0,0.9,0,0.9,0.9,0.9
			c1.1,0,2.2,0,3.3,0c0.3,0,0.4,0.1,0.4,0.4c0,0.8,0,1.7,0,2.5c0,0.3-0.1,0.3-0.3,0.3c-2.7,0-5.3,0-8,0c-0.3,0-0.4-0.1-0.4-0.4
			C47.6,27.5,47.6,25.5,47.6,23.6C47.6,23.6,47.6,23.6,47.6,23.6z"/>
		<path class="st0" d="M83.3,10.5c0-1.9,0-3.8,0-5.7c0-0.4,0-0.4,0.4-0.4c2.6,0,5.2,0,7.9,0c0.3,0,0.4,0.1,0.4,0.4
			c0,0.8,0,1.6,0,2.4c0,0.4,0,0.4-0.4,0.4c-1.3,0-2.5,0-3.8,0c-0.3,0-0.4,0.1-0.4,0.4c0,0.2,0,0.4,0,0.6c0,0.3,0.1,0.4,0.4,0.4
			c0.9,0,1.9,0,2.8,0c0.4,0,0.5,0,0.5,0.4c0,0.8,0,1.6,0,2.4c0,0.4,0,0.4-0.4,0.4c-0.9,0-1.9,0-2.8,0c-0.3,0-0.4,0.1-0.4,0.4
			c0,0.9,0,0.9,0.9,0.9c1.1,0,2.2,0,3.3,0c0.3,0,0.4,0.1,0.4,0.4c0,0.8,0,1.7,0,2.5c0,0.3-0.1,0.3-0.3,0.3c-2.7,0-5.3,0-8,0
			c-0.3,0-0.3-0.1-0.3-0.4C83.3,14.3,83.3,12.4,83.3,10.5C83.3,10.5,83.3,10.5,83.3,10.5z"/>
		<path class="st0" d="M70.9,14.2c0,0.7,0,1.4,0,2.1c0,0.2,0,0.3-0.2,0.3c-2.1,0.4-4.1,0.3-5.9-1.1c-2.9-2.2-3.4-6.4-1-9.2
			c1.4-1.7,3.3-2.4,5.5-2.2c0.4,0,0.9,0.1,1.3,0.1c0.2,0,0.3,0.1,0.3,0.4c0,1.4,0,2.8,0,4.1c0,0.1,0,0.2,0,0.2
			c-0.1,0-0.1-0.1-0.2-0.1c-0.7-0.6-2.3-1-3.2-0.3c-0.8,0.5-1.2,1.5-0.9,2.5c0.3,0.9,1.1,1.6,2.1,1.6c0.8,0,1.5-0.2,2.2-0.7
			c0,0,0.1-0.1,0.1-0.1c0.1,0,0.1,0.1,0.1,0.2C70.9,12.8,70.9,13.5,70.9,14.2C70.9,14.2,70.9,14.2,70.9,14.2z"/>
		<path class="st0" d="M38.2,23.6c0-1.9,0-3.8,0-5.7c0-0.4,0-0.4,0.4-0.4c1.1,0,2.2,0,3.3,0c0.4,0,0.4,0,0.4,0.4c0,2.7,0,5.4,0,8.1
			c0,0.5,0,0.5,0.5,0.5c1.2,0,2.4,0,3.7,0c0.3,0,0.4,0.1,0.4,0.4c0,0.8,0,1.7,0,2.5c0,0.3-0.1,0.4-0.4,0.4c-2.6,0-5.3,0-7.9,0
			c-0.3,0-0.4-0.1-0.4-0.4C38.2,27.5,38.2,25.5,38.2,23.6C38.2,23.6,38.2,23.6,38.2,23.6z"/>
		<path class="st0" d="M95.1,12.1c0-1.4,0-2.8,0-4.1c0-0.3-0.1-0.4-0.4-0.4c-0.5,0-1,0-1.5,0c-0.2,0-0.3-0.1-0.3-0.3
			c0-0.9,0-1.7,0-2.6c0-0.2,0.1-0.3,0.3-0.3c2.7,0,5.3,0,8,0c0.2,0,0.3,0.1,0.3,0.3c0,0.9,0,1.7,0,2.6c0,0.2-0.1,0.3-0.3,0.3
			c-0.5,0-1.1,0-1.6,0c-0.2,0-0.4,0.1-0.3,0.3c0,2,0,3.9,0,5.9c0,0.8,0,1.7,0,2.5c0,0.2-0.1,0.3-0.3,0.3c-1.1,0-2.3,0-3.4,0
			c-0.3,0-0.4-0.1-0.4-0.4C95.1,14.8,95.1,13.5,95.1,12.1C95.1,12.1,95.1,12.1,95.1,12.1z"/>
		<path class="st0" d="M26.5,14.3c0.9,0,1.7,0.3,2.4,0.8c1.1,0.7,2,1.5,2.6,2.7c0.1,0.3,0.2,0.6,0.3,0.8c0,0.1,0,0.1,0,0.2
			c-0.1,0-0.1,0-0.2-0.1c-0.5-0.3-1-0.4-1.6-0.4c-0.8,0-1.6,0-2.3-0.2c-0.5-0.1-0.9-0.2-1.3-0.5c-0.2-0.1-0.3-0.2-0.2-0.5
			c0.2-0.3,0.2-0.6,0.3-0.9c0.1-0.6,0-1.2-0.6-1.6c-0.1,0-0.2-0.1-0.2-0.2c0-0.1,0.1-0.1,0.2-0.1C26.1,14.3,26.4,14.3,26.5,14.3z"/>
		<path class="st0" d="M11.9,10.6c-0.5,0.2-0.6,0.6-0.4,1.2c-0.1,0-0.1,0-0.2,0c0.2,0.2,0.5,0.3,0.7,0.1c0.3-0.2,0.5-0.4,0.4-0.7
			c-0.1-0.3,0.1-0.4,0.3-0.4c0.5-0.1,1,0,1.6,0c-0.1-0.2-0.1-0.2-0.7-0.3c-0.2-0.1-0.5-0.1-0.8-0.2c0-0.1,0.1-0.1,0.2-0.1
			c0.4,0.1,0.7,0.1,1,0.2c0.4,0.1,0.8,0.3,1,0.7c0.2,0.3,0.5,0.5,0.9,0.6c0.2,0,0.3,0.1,0.4,0.2c0.6,0.7,1.2,1.4,1.6,2.2
			c0.1,0.3,0.4,0.4,0.6,0.7c-0.4-0.1-0.9-0.3-1.3-0.4c-0.1,0-0.1-0.2-0.1-0.3c0.1-1.7-1.3-2.5-2.5-2.6c-0.9-0.1-1.5,0.3-2.1,0.8
			c-0.2,0.2-0.3,0.2-0.5,0.2c-0.2,0-0.3,0-0.5,0c-0.1,0-0.2,0-0.2,0.1c-0.1,0.2-0.7,0.4-0.9,0.3c-0.2-0.1-0.5-0.1-0.7-0.1
			c-0.5,0-1-0.6-0.9-1c0-0.2,0.1-0.2,0.3-0.1c0.2,0.1,0.4,0.3,0.6,0.4c0.2,0.1,0.3,0.1,0.5-0.1c0.3-0.3,0.3-0.4,0.1-0.8
			c-0.1-0.2-0.3-0.4-0.2-0.6c0-0.1,0-0.2,0.1-0.2c0.1,0,0.1,0.1,0.2,0.1c0.1,0.2,0.3,0.4,0.4,0.6c0.1,0.1,0.1,0.2,0.3,0.2
			c0.1,0,0.3-0.1,0.3-0.2C11.5,10.6,11.6,10.6,11.9,10.6z"/>
		<path class="st0" d="M16.8,10.5C16.5,10,16.6,10,17,9.6c0.8-0.8,1.8-0.6,2.8-0.5c1,0.2,0.8,0,1.2,1c0.1,0.2,0.1,0.4,0.2,0.6
			c0.1,0.2,0,0.3-0.2,0.3c-0.8,0-1.5,0-2.3,0.1c-0.2,0-0.5,0-0.7,0.1c-0.4,0-0.7-0.1-0.9-0.4C17,10.7,16.9,10.6,16.8,10.5
			C16.9,10.5,16.8,10.5,16.8,10.5z"/>
		<path class="st0" d="M9.8,10c-0.4,0.1-0.3,0.4-0.4,0.6c0,0.2,0.1,0.3,0.3,0.3c0.1,0,0.1,0.1,0.1,0.1c-0.1,0.1-0.2,0.1-0.3,0
			c-0.1-0.2-0.3-0.3-0.5-0.4c-0.1,0-0.1-0.1-0.2,0c-0.1,0.1,0,0.1,0.1,0.2C9,11,9.1,11.2,9,11.3c-0.2,0.1-0.3,0.3-0.5,0.2
			c-0.1,0-0.2-0.1-0.1-0.2c0.1-0.5-0.1-0.9-0.1-1.4C8.3,9.5,8.4,9,8.7,8.7c0.1-0.1,0.1-0.2,0.2-0.2c0.3,0.1,0.7,0,1,0
			c0.3,0.1,0.6,0.2,1,0.3c-0.3,0.1-0.5,0.1-0.8,0.2C9.8,9,9.6,9.1,9.3,9.1C9.1,9.1,9,9.2,9,9.4C8.9,9.6,9.1,9.6,9.2,9.7
			C9.4,9.8,9.6,9.9,9.8,10z"/>
		<path class="st0" d="M22.4,11.7c-0.7,0.1-1.4,0-2.1,0.2c-0.6,0.1-1.1,0.3-1.6,0.6c-0.1,0.1-0.2,0.1-0.3-0.1
			c-0.2-0.3-0.4-0.6-0.6-0.8c-0.1-0.1-0.1-0.2,0.1-0.2C19.4,11.3,20.9,11.4,22.4,11.7C22.4,11.6,22.4,11.7,22.4,11.7z"/>
		<path class="st0" d="M24.4,12C24.4,12,24.4,12,24.4,12c0.2,0,0.4-0.1,0.4,0.1c0,0.2-0.1,0.4-0.4,0.4c-0.6,0-1.2,0.2-1.7,0.5
			c-0.1,0.1-0.3,0.1-0.3,0.3c0,0.2,0.2,0.2,0.3,0.2c0.5,0.2,0.9,0.4,1.4,0.6c0.1,0,0.2,0,0.2,0.1c0,0.1-0.1,0.1-0.2,0.1
			c-0.5,0.3-1,0.2-1.5,0c-0.2-0.1-0.4-0.1-0.6-0.2c-0.3-0.1-0.3-0.2-0.1-0.4c0.1-0.1,0.2-0.1,0.2-0.2c0.1,0,0.1-0.1,0-0.2
			c-0.2-0.3,0-0.4,0.2-0.5c0.4-0.2,0.8-0.4,1.2-0.5c0.2,0,0.3-0.1,0.4-0.3C24.1,11.9,24.3,11.9,24.4,12z"/>
		<path class="st0" d="M23,11.3c0,0.1-0.1,0.1-0.1,0.1c-0.4-0.1-0.8-0.2-1.2-0.4c-0.3-0.1-0.4-0.5-0.4-0.8c0-0.1,0.3-0.3,0.5-0.2
			C22.3,10.3,22.7,10.7,23,11.3C23,11.2,23,11.3,23,11.3z"/>
		<path class="st0" d="M8,10.8c0,0.1,0,0.2-0.1,0.2c-0.1,0-0.3,0-0.3-0.2c0.1-0.5-0.2-1-0.1-1.6C7.6,8.8,7.8,8.5,8,8.2
			C8,8.1,8.1,8,8.2,8.1c0.1,0.1,0,0.1,0,0.2C8.1,8.4,8,8.6,8,8.7C7.8,8.9,7.8,9.1,8.1,9.2c0.1,0.1,0.1,0.2,0.1,0.3
			C8.1,10,8.1,10.4,8,10.8z"/>
		<path class="st0" d="M21.1,15.5c-0.1,0-0.4-0.1-0.6-0.2c-0.1,0-0.2-0.1-0.1-0.2c0.3-0.3,0.6-0.5,0.9-0.8c0.1-0.1,0.2,0,0.3,0
			c0.5,0.2,0.5,0.2,0.1,0.6c-0.1,0.1-0.2,0.3-0.4,0.4C21.3,15.5,21.3,15.5,21.1,15.5z"/>
		<path class="st0" d="M16,14.6c0.6,0,0.6,0,0.3,0.5c-0.1,0.2-0.3,0.4-0.5,0.6c-0.1,0.1-0.2,0.1-0.3-0.1c-0.1-0.2-0.1-0.4-0.2-0.6
			c-0.1-0.3,0-0.4,0.3-0.4C15.8,14.6,15.9,14.6,16,14.6z"/>
		<path class="st0" d="M16.8,10.5C16.8,10.5,16.9,10.5,16.8,10.5c0,0.1-0.1,0.1-0.2,0.1c-0.3-0.1-0.7-0.1-1-0.1
			c-0.3,0-0.5-0.2-0.8-0.2c-0.1,0,0-0.1,0-0.1c0.1-0.1,0.1-0.2,0-0.3c-0.2-0.1-0.2,0.1-0.2,0.2c0,0.1-0.1,0.1-0.1,0.2
			c-0.1,0-0.1,0-0.2,0c-0.1,0,0-0.1,0-0.1c0.1-0.1,0.1-0.3,0-0.5C15.2,9.8,16,10.1,16.8,10.5z"/>
		<path class="st0" d="M14.8,16.2c-0.1,0-0.2,0-0.3,0c-0.5-0.1-0.5-0.2-0.2-0.6c0.1-0.1,0.2-0.3,0.3-0.4c0.1-0.1,0.2-0.1,0.3,0
			c0.1,0.3,0.2,0.5,0.3,0.8c0,0.1,0,0.2-0.1,0.2C15,16.1,14.9,16.2,14.8,16.2z"/>
		<path class="st0" d="M16.3,14.2c-0.2,0-0.5,0-0.7,0c-0.2,0-0.2-0.1-0.1-0.3c0.1-0.2,0.3-0.5,0.4-0.7c0.1-0.1,0.2-0.1,0.3,0
			c0.2,0.2,0.3,0.4,0.4,0.7C16.6,14.2,16.5,14.2,16.3,14.2z"/>
		<path class="st0" d="M22.2,16.1c-0.1,0-0.4,0-0.4-0.2c-0.1-0.1,0.1-0.3,0.2-0.4c0.2-0.2,0.3-0.4,0.5-0.6c0.1-0.1,0.2-0.2,0.3-0.1
			c0.2,0.1,0.3,0.1,0.1,0.3c-0.2,0.3-0.4,0.5-0.5,0.8C22.4,16,22.4,16.1,22.2,16.1z"/>
		<path class="st0" d="M12,8.7c-0.3,0.1-0.5,0.1-0.7,0.1c-0.3-0.1-0.7-0.2-1.1-0.3C10,8.5,10,8.3,10,8.1c0-0.2,0.2-0.2,0.3-0.1
			C10.9,8.2,11.4,8.4,12,8.7z"/>
		<path class="st0" d="M15.4,13c0.2,0,0.2,0.1,0.1,0.2c-0.1,0.2-0.3,0.4-0.4,0.6c-0.1,0.2-0.2,0.2-0.4,0.1c-0.4-0.3-0.4-0.4,0-0.7
			C14.9,13.1,15.2,13,15.4,13z"/>
		<path class="st0" d="M13.7,15c0-0.3,0.1-0.5,0.2-0.7c0.1-0.1,0.1-0.2,0.3-0.1c0.4,0.3,0.4,0.4,0.1,0.8c-0.1,0.1-0.2,0.3-0.3,0.4
			c0,0.1-0.1,0.1-0.1,0.1c-0.1,0-0.1-0.1-0.1-0.2C13.7,15.2,13.7,15.1,13.7,15z"/>
		<path class="st0" d="M25.1,17.1c0-0.1,0-0.2,0.1-0.2c0.2,0,0.4-0.1,0.6-0.1c0.1,0,0.2,0.1,0.1,0.2c-0.1,0.3-0.3,0.6-0.5,0.8
			c-0.1,0.1-0.1,0.1-0.2,0C25.2,17.6,25.2,17.3,25.1,17.1z"/>
		<path class="st0" d="M16.7,11.9c0.6,0.1,1.1,0.4,1.5,0.9c0.1,0.1,0,0.2-0.1,0.2c-0.1,0-0.2,0-0.3-0.1
			C17.4,12.5,17.1,12.2,16.7,11.9z"/>
		<path class="st0" d="M25.6,16.5c-0.1,0-0.1,0-0.2,0c-0.2,0-0.3-0.1-0.1-0.3c0.1-0.2,0.2-0.3,0.3-0.4c0.1-0.2,0.2-0.1,0.3,0
			c0,0,0,0.1,0.1,0.1C26.2,16.4,26.1,16.5,25.6,16.5z"/>
		<path class="st0" d="M24.7,18.2c-0.4,0-0.5-0.1-0.3-0.4c0.1-0.2,0.1-0.5,0.3-0.5c0.2,0,0.2,0.3,0.2,0.5
			C25.1,18.1,25.1,18.2,24.7,18.2z"/>
	</g>
</g>
</svg>
