<?xml version="1.0" encoding="utf-8"?>
<!-- Generator: Adobe Illustrator 19.0.0, SVG Export Plug-In . SVG Version: 6.00 Build 0)  -->
<svg version="1.1" id="Layer_1" xmlns="http://www.w3.org/2000/svg" xmlns:xlink="http://www.w3.org/1999/xlink" x="0px" y="0px"
	 viewBox="0 0 118 123.1" style="enable-background:new 0 0 118 123.1;" xml:space="preserve">
<style type="text/css">
	.st0{fill:#FFCE00;}
</style>
<g>
	<path class="st0" d="M93.2,17.3c-0.1,10.3-3.4,20.9-9.9,28.5c-3.4,4-6.5,6.5-11,8.8c-3.7,1.9-8.5,3-12.8,3c-4.3,0-9.1-1.1-12.8-3
		c-4.6-2.3-7.6-4.8-11-8.8c-6.4-7.6-9.8-18.2-9.9-28.5c0-5.9-9.2-5.9-9.1,0c0.1,17.8,8.7,36.5,24.9,44.9c-3.5,1.2-6,4.5-6,8.3
		c0,2.2,0.8,4.1,2.1,5.7c-1.3,1.5-2.1,3.5-2.1,5.7c0,4.6,3.6,8.5,8.2,8.8v14.9H29.6v17.5h62.9v-17.5H76.2v-15
		c4.1-0.7,7.2-4.3,7.2-8.6c0-2.2-0.8-4.1-2.1-5.7c1.3-1.5,2.1-3.5,2.1-5.7c0-3.9-2.6-7.2-6.1-8.4C87.9,56.5,96,46.1,99.7,34.3
		c1.7-5.5,2.6-11.3,2.6-17C102.4,11.4,93.2,11.4,93.2,17.3z M74.6,73.1H44.4c-1.4,0-2.6-1.2-2.6-2.6c0-1.4,1.2-2.6,2.6-2.6h30.2
		c1.4,0,2.6,1.2,2.6,2.6C77.2,72,76.1,73.1,74.6,73.1z M86.3,111.8v5.1H35.8v-5.1h8.1h32.3H86.3z M50.1,105.6V90.7H70v14.9H50.1z
		 M74.6,84.5H44.4c-1.4,0-2.6-1.2-2.6-2.6c0-1.4,1.2-2.6,2.6-2.6h30.2c1.4,0,2.6,1.2,2.6,2.6C77.2,83.3,76.1,84.5,74.6,84.5z"/>
	<path class="st0" d="M97.8,0c-8.6,0-17.2,0-25.9,0C58.2,0,44.4,0,30.7,0c-3.1,0-6.3,0-9.4,0c-0.2,0-0.3,0-0.5,0c-0.2,0-0.4,0-0.6,0
		C6.4,0.3,0.1,15.9,0,27.7c-0.1,5.9,9.1,5.9,9.1,0c0-5,1.1-9.6,3.7-13.7c0.1-0.2,0.7-0.9,0.7-1.1c0.1-0.1,0.7-0.8,0.8-0.9
		c0.4-0.4,0.8-0.8,1.3-1.2c0.1-0.1,0.1-0.1,0.2-0.2c0.1,0,0.1-0.1,0.2-0.1c0.5-0.3,0.9-0.6,1.4-0.8c0.1,0,0.1-0.1,0.2-0.1
		c0,0,0.1,0,0.2-0.1c0.4-0.1,0.8-0.2,1.2-0.3c-0.2,0.1,0.9-0.1,1.1-0.1c0.2,0,0.3,0,0.5,0c0.2,0,0.4,0,0.6,0c8.6,0,17.2,0,25.9,0
		c13.7,0,27.5,0,41.2,0c3.1,0,6.3,0,9.4,0c1.8,0,2.2,0.3,4.2,1.4c0.1,0.1,0.2,0.1,0.2,0.1c0,0,0.1,0.1,0.2,0.2
		c0.4,0.4,0.9,0.8,1.3,1.2c1,1,0.8,0.8,1.6,2c2.6,4.1,3.7,8.7,3.7,13.7c0.1,5.9,9.2,5.9,9.1,0C117.9,15.9,111.7,0.3,97.8,0z"/>
</g>
</svg>
