<?xml version="1.0" encoding="utf-8"?>
<!-- Generator: Adobe Illustrator 19.0.0, SVG Export Plug-In . SVG Version: 6.00 Build 0)  -->
<svg version="1.1" id="Layer_1" xmlns="http://www.w3.org/2000/svg" xmlns:xlink="http://www.w3.org/1999/xlink" x="0px" y="0px"
	 viewBox="0 0 48.5 48.3" style="enable-background:new 0 0 48.5 48.3;" xml:space="preserve">
<style type="text/css">
	.st0{fill:#29AAE0;}
</style>
<path class="st0" d="M0,0c16.1,0,32.1,0,48.1,0c0.4,1.6,0.5,42.2,0.2,48.3c-16,0-32.1,0-48.3,0C0,32.3,0,16.2,0,0z M13.6,21.3
	c-0.5,0.2-1.1-0.2-1.7,0.1c0.1,2.6,1.8,4,4,5.1c-0.7,0.3-1.3,0-1.9,0.4c0.4,1.1,1,1.8,1.9,2.4c0.8,0.6,1.8,0.8,2.9,1.1
	c-2.2,2-4.8,2.2-7.3,2.5c9.5,5.7,23.2,0,23.6-14.3c0.7-0.6,1.5-1.1,1.9-2c-0.5-0.4-1-0.1-1.5-0.2l-0.1-0.1c-0.1-0.9,1.4-1.2,1-2.3
	c-1,0.3-1.8,1-3.1,0.7c-1.9-1.5-4.1-2.1-6.5-0.8c-2.4,1.3-3,3.6-2.9,6c-4.6-0.3-8.2-2.2-11.2-5.6c-0.6,1.1-0.7,2.2-0.7,3.3
	C12,19.2,13.1,20.1,13.6,21.3L13.6,21.3z"/>
</svg>
