<?xml version="1.0" encoding="utf-8"?>
<!-- Generator: Adobe Illustrator 19.0.0, SVG Export Plug-In . SVG Version: 6.00 Build 0)  -->
<svg version="1.1" id="Layer_1" xmlns="http://www.w3.org/2000/svg" xmlns:xlink="http://www.w3.org/1999/xlink" x="0px" y="0px"
	 viewBox="0 0 155.7 37.1" style="enable-background:new 0 0 155.7 37.1;" xml:space="preserve">
<style type="text/css">
	.st0{fill:#F3F4F4;}
</style>
<path class="st0" d="M102,37.1c-0.2-0.3-0.5-0.5-0.7-0.8c-0.5-0.5-0.9-1-1.4-1.5c-1-1-1.9-2.1-2.9-3.1c0,0,0,0,0-0.1
	c17.9,0,35.8,0,53.8,0c0.3,0.3,0.7,0.7,1,1c1,1.1,2.1,2.2,3.1,3.4c0.3,0.3,0.5,0.6,0.8,0.9c0.1,0.1,0.2,0.1,0.1,0.2
	C137.8,37.1,119.9,37.1,102,37.1z M125.7,35.3c0-0.1,0-0.3,0-0.4c0-0.7,0-1.5,0-2.2c0-0.1,0.1-0.2-0.1-0.2c-0.3,0-0.6,0-0.9,0
	c-0.1,0-0.1,0-0.2,0.1c0,1.1,0,2.1,0,3.2c0,0.1,0,0.1,0,0.2c0,0,0.1,0,0.1,0c0,0,0,0,0,0.1c0,0.1,0.1,0.1,0.1,0.1c0.9,0,1.7,0,2.6,0
	c0.1,0,0.1,0,0.1-0.1c0-0.2,0.2-0.4,0.1-0.7C126.9,35.3,126.3,35.3,125.7,35.3z M113.5,36.1c0,0.1,0.1,0.1,0.2,0.1
	c0.8,0,1.6,0,2.5,0c0.1,0,0.1,0,0.2-0.1c0.1-0.2,0.2-0.4,0.2-0.7c-0.6,0-1.2,0-1.9,0c0-0.9,0-1.9,0-2.8c-0.1,0-0.1,0-0.2,0
	c-0.3,0-0.6,0-1,0c-0.1,0-0.1,0.1-0.1,0.2c0,1.1,0,2.1,0,3.2C113.4,35.9,113.4,36,113.5,36.1C113.5,36,113.5,36,113.5,36.1z
	 M130.2,35.3c0.6,0,1.2,0,1.8,0c0,0.1,0.1,0.1,0.1,0.2c-0.1,0.1-0.1,0.2,0.1,0.2c0.1,0.1,0.1,0.2,0.2,0.2c0.3,0,0.6,0,1,0
	c-0.6-1.2-1.2-2.4-1.7-3.5c-0.4,0-0.7,0-1,0c-0.5,0.9-1.6,3.3-1.7,3.5c0.3,0,0.6,0,0.9,0C129.9,35.8,130,35.6,130.2,35.3z M141.5,36
	c0,0.1,0,0.1,0.1,0.1c0.6,0,1.2,0,1.8,0c0-0.1,0-0.1,0-0.1c0.2,0,0.4-0.1,0.7-0.2c0.9-0.3,1.3-1,1.1-2c-0.1-0.5-0.3-0.8-0.8-1.1
	c-0.4-0.2-0.8-0.3-1.2-0.3c-0.5,0-0.9,0-1.4,0c-0.1,0-0.2,0-0.3,0.1C141.5,33.7,141.5,34.9,141.5,36z M118.5,36.1
	c0,0.1,0,0.1,0.1,0.1c0.6,0,1.2,0,1.8,0c0-0.1,0-0.1,0-0.1c0.2,0,0.4-0.1,0.7-0.2c0.9-0.3,1.3-1,1.1-2c-0.1-0.5-0.3-0.8-0.8-1.1
	c-0.4-0.2-0.8-0.3-1.2-0.3c-0.5,0-0.9,0-1.4,0c-0.1,0-0.2,0-0.3,0.1C118.5,33.7,118.5,34.9,118.5,36.1z M138.9,36
	c0.1,0,0.1-0.1,0.1-0.1c0-0.3,0-0.5,0-0.8c0-0.8,0-1.5,0-2.3c0-0.1,0.1-0.2-0.1-0.2c-0.3,0-0.6,0-0.9,0c0,0.8,0,1.5,0,2.3l0,0
	c-0.4-0.5-0.8-1.1-1.2-1.7c-0.2-0.2-0.3-0.4-0.5-0.6c-0.4,0-0.7,0-1.1,0c-0.1,1.1,0,3.2,0,3.5c0.3,0,0.5,0.1,0.8,0
	c0-0.8,0-1.5,0-2.4c0.6,0.8,1.1,1.7,1.7,2.4c0.2,0,0.4,0,0.6,0C138.5,36,138.7,36.1,138.9,36z M106.3,34.9
	C106.3,34.9,106.2,34.9,106.3,34.9c-0.3-0.8-0.6-1.6-0.9-2.4c-0.3,0-0.6,0-0.9,0c-0.3,0.8-0.5,1.6-0.9,2.5c-0.2-0.9-0.5-1.7-0.7-2.5
	c-0.3,0-0.6,0-1,0c0.4,1.2,0.7,2.4,1.1,3.5c0.4,0,0.7,0,1,0c0.3-0.8,0.5-1.5,0.8-2.4c0.3,0.8,0.6,1.6,0.8,2.4c0.4,0,0.7,0,1.1,0
	c0.4-1.2,0.7-2.3,1.1-3.5c-0.3,0-0.6,0-0.9,0C106.7,33.3,106.5,34.1,106.3,34.9z M150.6,33c0,0-0.1-0.1-0.1-0.1
	c-0.8-0.5-1.7-0.6-2.6-0.3c-0.2,0.1-0.4,0.2-0.5,0.4c-0.2,0.2-0.2,0.5-0.1,0.8c0.1,0.3,0.4,0.4,0.7,0.5c0.4,0.1,0.8,0.2,1.2,0.3
	c0.2,0.1,0.4,0.1,0.5,0.3c0,0.3-0.1,0.4-0.3,0.4c-0.5,0.1-1,0.1-1.5-0.1c-0.1-0.1-0.2-0.2-0.4-0.2c-0.2,0.1-0.4,0.3-0.6,0.4
	c0,0,0.1,0.1,0.1,0.1c0.8,0.5,1.6,0.5,2.5,0.4c0.3,0,0.5-0.1,0.8-0.3c0.6-0.3,0.6-1.2,0-1.6c-0.3-0.1-0.6-0.3-1-0.3
	c-0.2-0.1-0.5-0.1-0.7-0.2c-0.2-0.1-0.3-0.1-0.3-0.3c0.4-0.4,1-0.4,1.9,0C150.3,33.3,150.4,33.1,150.6,33z M109.9,36
	c0.3,0,0.6,0,0.9,0c0-1.2,0-2.3,0-3.5c-0.3,0-0.6,0-0.9,0C109.9,33.7,109.9,34.8,109.9,36z"/>
<path class="st0" d="M80.9,17.2c0,1.4,0,2.8,0,4.1c0.1,0.1,0.2,0.1,0.2,0.1c0.9,0,1.8,0,2.7,0c0.9-0.1,1.8-0.2,2.6-0.7
	c1.3-0.7,2-1.7,2-3.2c0-0.4,0-0.8-0.1-1.3c-0.2-0.9-0.7-1.5-1.4-1.9c-0.6-0.3-1.3-0.5-2-0.6c-0.7-0.1-1.5-0.2-2.2-0.2
	c-2.1,0-4.3,0-6.4,0c-0.1,0-0.3,0-0.4,0c1.4-1.5,2.8-2.9,4.1-4.4c0.1-0.1,0.3-0.1,0.4-0.1c0.9,0,1.8,0,2.7,0c1.8,0,3.5,0.2,5.2,0.8
	c0.9,0.3,1.8,0.8,2.6,1.4c1.1,0.9,1.9,2.1,2.2,3.5c0.5,1.8,0.5,3.6,0,5.3C92.5,22.4,91.1,24,89,25c-0.1,0.1-0.3,0.1-0.4,0.2
	c-0.1,0.1-0.3,0.1-0.4,0.2c2.5,2.8,5,5.5,7.6,8.3c-2.2,0-4.4,0-6.5,0c-2.4-2.7-4.9-5.3-7.4-8c-0.3,0-0.6,0-0.9,0c0,1.2,0,2.4,0,3.6
	c-1.7,0-3.3,0-4.9,0c-0.1-0.3-0.1-10.1,0-12c0.4-0.1,0.8,0,1.2,0c0.4,0,0.8,0,1.3,0c0.4,0,0.8,0,1.2,0
	C80.1,17.2,80.5,17.2,80.9,17.2z"/>
<path class="st0" d="M136.3,29.3c0-5.3,0-10.5,0-15.8c1.4,0,2.8,0,4.2,0c2.1,3.1,4.1,6.3,6.2,9.4c0.1-0.3,0-0.6,0-0.8
	c0-0.3,0-0.6,0-0.9c0-0.3,0-0.6,0-0.9s0-0.6,0-0.9c0-0.3,0-0.6,0-0.9c0-0.3,0-0.6,0-0.9c0-0.3,0-0.6,0-0.9s0-0.6,0-0.9
	c0-0.3,0-0.6,0-0.9s0-0.6,0-0.9c0-0.3,0-0.6,0-0.9c1.4,0,2.7,0,4,0c0,5.3,0,10.5,0,15.7c-0.3,0.1-2.9,0.1-4.2,0
	c-2.1-3.1-4.2-6.3-6.3-9.6c0,3.2,0,6.4,0,9.6C138.9,29.3,137.6,29.3,136.3,29.3z"/>
<path class="st0" d="M40.2,29.6c-1.5,0-2.9-0.2-4.2-0.9c-2.1-1.1-3.4-2.8-4-5.2c-0.4-1.6-0.3-3.3,0.2-4.9c0.8-2.6,2.6-4.3,5.2-5.1
	c2-0.6,4.1-0.5,6.1,0.2c2.4,0.9,3.9,2.6,4.6,5c0.5,1.8,0.5,3.6,0,5.4c-0.8,2.6-2.6,4.3-5.2,5C42,29.5,41.1,29.6,40.2,29.6z
	 M44.1,21.3c0-0.2,0-0.6-0.1-1c-0.4-1.8-1.6-3-3.3-3.2c-1.6-0.2-3.2,0.5-4,2c-0.7,1.5-0.7,3-0.1,4.4c0.5,1.1,1.3,1.7,2.4,2.1
	c0.5,0.2,1.1,0.2,1.7,0.1c1.3-0.2,2.3-0.8,2.9-2C44,23.1,44.1,22.3,44.1,21.3z"/>
<path class="st0" d="M127.1,29.6c-1.4,0-2.7-0.2-3.9-0.8c-2.1-1-3.5-2.6-4.2-4.8c-0.5-1.9-0.5-3.8,0.1-5.6c0.8-2.4,2.4-3.9,4.8-4.7
	c2.2-0.7,4.4-0.7,6.5,0.1c2.5,1,4.1,2.8,4.7,5.4c0.4,1.8,0.3,3.7-0.3,5.5c-0.9,2.3-2.6,3.8-5,4.5C128.8,29.5,127.9,29.6,127.1,29.6z
	 M123.1,21.4c0,0.5,0,0.9,0.1,1.3c0.3,1.1,0.8,2,1.8,2.6c0.7,0.4,1.4,0.5,2.2,0.5c1.6,0,2.9-1,3.5-2.5c0.3-0.8,0.3-1.6,0.3-2.4
	c-0.2-1.9-1.5-3.5-3.4-3.7c-1.4-0.2-2.9,0.4-3.8,1.7C123.2,19.6,123,20.5,123.1,21.4z"/>
<path class="st0" d="M20.9,13.5c0,2,0,4,0,6c0.3,0.1,4.8,0.1,5.6,0c0-2,0-4,0-6c1.5,0,2.9,0,4.3,0c0,5.3,0,10.5,0,15.8
	c-1.4,0-2.8,0-4.2,0c0,0,0,0,0,0c0,0,0,0,0,0c0-2,0-3.9,0-5.9c0,0,0,0,0-0.1c-1.8,0-3.7,0-5.6,0c0,2,0,4,0,6c-1.4,0-2.9,0-4.3,0
	c-0.1-0.3-0.1-15.1,0-15.8C18,13.5,19.4,13.5,20.9,13.5z"/>
<path class="st0" d="M11.5,19.6c1.4,0,2.8,0,4.1,0c0.1,0.1,0.1,0.2,0.1,0.3c0,1,0,1.9,0,2.9c-0.1,1.6-0.6,3-1.7,4.3
	c-1,1.2-2.3,2-3.8,2.3c-1.8,0.4-3.6,0.3-5.4-0.4c-2.1-0.8-3.5-2.3-4.2-4.4c-0.8-2.3-0.7-4.6,0.2-6.8c1-2.2,2.7-3.6,4.9-4.2
	c1.2-0.3,2.4-0.4,3.7-0.3c1.1,0.1,2.1,0.4,3,0.9c0.5,0.3,0.9,0.6,1.3,1C12.9,16,12,17,11.1,17.9c-0.1,0-0.2-0.1-0.3-0.2
	c-1.1-0.7-2.3-0.9-3.6-0.5c-1.4,0.4-2.2,1.4-2.5,2.8c-0.3,1.2-0.2,2.3,0.2,3.4c0.7,1.8,2.4,2.5,4.1,2.3c0.7-0.1,1.4-0.4,1.9-1
	c0.3-0.4,0.5-0.9,0.7-1.4c-0.6,0-1.2,0-1.7,0c-0.5,0-1.1,0-1.7,0C9.2,22,10.3,20.8,11.5,19.6z"/>
<path class="st0" d="M94.9,29.3c0-5.2,0-10.5,0-15.7c0.3-0.1,10.4-0.1,11.4,0c0,1.2,0,2.4,0,3.7c-0.6,0-1.2,0-1.8,0
	c-0.6,0-1.2,0-1.8,0c-0.6,0-1.2,0-1.8,0c-0.6,0-1.2,0-1.8,0c0,0.8,0,1.5,0,2.3c1.9,0,3.7,0,5.6,0c0.1,0.3,0.1,3,0,3.5
	c-1.8,0-3.7,0-5.6,0c0,0.9,0,1.7,0,2.6c2.4,0,4.7,0,7,0c0.1,0.3,0.1,2.9,0,3.7C102.5,29.3,98.7,29.3,94.9,29.3z"/>
<path class="st0" d="M59.8,15.3c-0.9,0.9-1.8,1.9-2.6,2.8c-0.2-0.2-0.3-0.4-0.5-0.5c-0.7-0.7-1.5-0.9-2.4-0.7
	c-0.7,0.1-1.1,0.7-0.9,1.4c0.1,0.3,0.3,0.4,0.5,0.6c0.3,0.2,0.7,0.4,1.1,0.5c0.8,0.3,1.7,0.6,2.5,1c0.5,0.3,1.1,0.6,1.5,0.9
	c2.1,1.5,2.2,4.6,0.7,6.3c-0.7,0.8-1.5,1.4-2.5,1.7c-1.9,0.6-3.8,0.6-5.7-0.1c-1.1-0.4-2-1-2.7-2c0.9-0.9,1.7-1.8,2.6-2.8
	c0.1,0,0.2,0.2,0.2,0.2c0.9,1.2,2.1,1.6,3.6,1.3c0.2,0,0.4-0.1,0.6-0.2c0.5-0.3,0.7-1.2,0.2-1.7c-0.2-0.2-0.5-0.4-0.8-0.5
	c-0.8-0.3-1.5-0.5-2.3-0.8c-0.8-0.3-1.6-0.7-2.2-1.2c-2.4-1.8-2.4-5.7,0.5-7.4c0.8-0.5,1.7-0.8,2.7-0.9c1.1-0.1,2.2-0.1,3.3,0.3
	C58.2,13.8,59.1,14.4,59.8,15.3z"/>
<path class="st0" d="M117.9,17.8c-0.6-0.3-1.2-0.5-1.9-0.6c-0.9-0.2-1.9-0.2-2.8,0.1c-1.6,0.5-2.4,1.6-2.7,3.2
	c-0.1,0.8-0.1,1.6,0.1,2.3c0.5,1.6,1.6,2.5,3.2,2.8c1.3,0.3,2.6,0.1,3.8-0.5c0,0,0.1,0,0.1-0.1c0,0,0.1,0,0.1-0.1
	c0.4,1.2,0.8,2.3,1.2,3.5c-0.1,0.2-0.2,0.2-0.4,0.2c-0.9,0.4-1.9,0.6-2.9,0.8c-1.5,0.2-2.9,0.1-4.3-0.4c-2.9-1-4.7-3-5.3-6.1
	c-0.3-1.9-0.2-3.7,0.7-5.5c1-2,2.7-3.3,4.9-4c1.4-0.4,2.8-0.5,4.3-0.4c1.1,0.1,2.1,0.3,3.1,0.7c0.2,0.1,0.3,0.1,0.5,0.2
	C119.1,15.4,118.5,16.6,117.9,17.8z"/>
<path class="st0" d="M64.4,17.2c-1.2,0-2.3,0-3.4,0c0-1.2,0-2.4,0-3.6c0.3-0.1,12.5-0.1,13.6,0c-0.1,0.3-1.7,2-3.4,3.6
	c-0.8,0-1.6,0-2.5,0c0,1.3,0,2.6,0,3.9c0,1.3,0,2.6,0,3.9c-1.4,1.5-2.8,3-4.3,4.6C64.4,25.4,64.4,21.4,64.4,17.2z"/>
<path class="st0" d="M5.5,1.6c0.1,0.1,0.1-0.1,0.3-0.1c0.2,0.3,0.6,0.2,0.9,0.2c0.1,0.1,0,0.2,0.1,0.3c0.5,0.3,1,0.4,1.5,0.4
	c0.2,0.1,0.1,0.3,0.1,0.4c0.2,0.2,0.5,0.1,0.7,0.2c0,0.1,0,0.1,0,0.1c0,0-0.1,0.1-0.1,0.1C8.6,3.1,8,3.2,7.4,3
	C7.2,3.2,7,3.1,6.7,3.2c-0.2,0.2,0,0.5-0.1,0.7C6.5,3.9,6.4,4,6.3,4c-0.2-0.1,0-0.3-0.1-0.4C6,3.7,5.9,3.8,5.8,3.8
	C5.8,4,5.7,4.1,5.6,4.3c0.1,0.2,0,0.5,0,0.7c0.3,0.6,0.6,1,1,1.4c0.4,0.4,0.5,0.8,0.4,1.3c0,0.1,0,0.3,0,0.4c0,0.2,0,0.3,0,0.5
	C7,8.9,6.9,9.2,7,9.5c0.1,0.2,0.2,0.3,0.4,0.4c0.3,0.2,0.3,0.2,0.4,0.7c-0.3,0.3-0.8,0.3-1-0.1c-0.1-0.2-0.2-0.3-0.5-0.4
	c-0.1,0-0.2-0.1-0.2-0.2c0-0.2,0-0.4,0.1-0.6c0-0.1,0-0.2-0.1-0.3C6,8.9,6,8.8,6,8.7c0,0,0-0.1,0-0.1c-0.2-0.2-0.1-0.5,0-0.7
	C5.9,7.7,5.6,7.6,5.7,7.3C5.2,6.9,4.8,6.5,4.3,6.1C3.9,6.6,3.3,6.9,2.9,7.3C2.7,7.6,2.3,7.7,2.1,7.9C1.9,8.1,1.8,8.4,1.5,8.4
	c0,0.3,0,0.6-0.4,0.7C1,9.6,0.6,9.6,0.1,9.5C0,9.3,0.1,9.1,0.3,9c0.2-0.1,0.3-0.3,0.4-0.4c0.1-0.1,0.2-0.2,0.1-0.4
	C0.8,7.9,1.1,7.8,1.1,7.8c0.1-0.2,0-0.3,0.1-0.4C1.3,7.2,1.5,7.1,1.7,7C1.8,6.6,2,6.4,2.3,6.1c0.1-0.1,0-0.1,0-0.2
	c0.1-0.3,0.5-0.6,0.5-1C2.8,4.7,3,4.9,3.1,4.8c0.1-0.1,0.2-0.2,0.3-0.3c0-0.1,0-0.3,0-0.5C3.2,3.8,3.3,3.5,3.2,3.2
	C2.9,3.3,2.5,3.3,2.1,3.3C1.9,3.2,1.9,3,1.9,2.9C2.1,2.5,2.3,2.2,2.6,2C3,1.8,3.4,1.6,3.9,1.5C4,1.4,4,1.4,4.1,1.3
	C3.8,1.1,3.9,0.9,3.8,0.6c0.1-0.1,0.2-0.1,0.3-0.3C4.4,0,4.7-0.1,5.1,0c0.4,0.1,0.6,0.4,0.6,0.8c0,0.1,0,0.2,0,0.3
	c0,0.2-0.2,0.2-0.2,0.3l0,0l0,0c0,0-0.1-0.1-0.1-0.1c-0.3,0-0.5-0.1-0.8-0.1c0.1,0.2,0.2,0.3,0.4,0.4c0.2,0,0.3-0.2,0.5-0.1
	C5.4,1.6,5.5,1.5,5.5,1.6z"/>
<path class="st0" d="M74.7,4.2c-0.1,0.4-0.1,0.8-0.2,1.2c-1.5,0-3,0-4.4,0c-0.1,0.2-0.1,0.3,0,0.4c0.1,0.1,0.3,0.1,0.4,0.1
	c1,0,2,0,2.9,0c0.4,0,0.8,0.1,1.1,0.5c0.3,0.4,0.3,1.4,0,1.8c-0.2,0.4-0.6,0.5-1,0.5c-1.4,0-2.8,0-4.2,0c-0.1,0-0.2,0-0.3-0.1
	c0-0.3,0.1-0.7,0.1-1.1c1.4,0,2.8,0,4.2,0c0.2-0.2,0.2-0.3,0.1-0.5c-0.1-0.1-0.3,0-0.4,0c-1,0-1.9,0-2.9,0c-0.8,0-1.3-0.5-1.3-1.3
	c0-0.1,0-0.2,0-0.3c0-0.8,0.7-1.3,1.3-1.3c1.4,0,2.7,0,4.1,0C74.3,4.2,74.5,4.2,74.7,4.2z"/>
<path class="st0" d="M25.5,7.6c0.7-1.1,1.4-2.3,2.1-3.4c0.4,0,0.8,0,1.3,0c0,1.5,0,3,0,4.5c-0.4,0-0.7,0-1.2,0c0-0.8,0-1.6,0-2.3
	c0,0,0,0-0.1,0c-0.5,0.8-1,1.6-1.5,2.4c-0.5,0-0.9,0-1.4,0c-0.5-0.8-1-1.6-1.5-2.4c0,0,0,0-0.1,0c0,0.8,0,1.5,0,2.3
	c-0.4,0-0.8,0-1.2,0c0-1.5,0-3,0-4.5c0.4-0.1,0.8,0,1.3,0C24,5.3,24.7,6.5,25.5,7.6z"/>
<path class="st0" d="M15.6,4.2c1.6,0,3.1,0,4.7,0c0.6,0,1.1,0.5,1.2,1.1c0,0.7,0,1.5,0,2.2c0,0.7-0.5,1.1-1.2,1.1
	c-1.2,0-2.3,0-3.5,0c-0.6,0-1.1-0.5-1.1-1.1c0-1.1,0-2.1,0-3.2C15.6,4.4,15.6,4.3,15.6,4.2z M16.8,5.4c0,0.7,0,1.3,0,1.9
	c0,0.1,0,0.2,0.1,0.2c0.8,0.1,3.1,0,3.3,0c0.1-0.4,0.1-1.8,0-2C20,5.4,17.8,5.3,16.8,5.4z"/>
<path class="st0" d="M47.2,4.2c0,1.5,0,3,0,4.5c-0.4,0-0.7,0-1.1,0c0-0.4,0-0.7,0-1.1c-1,0-1.9,0-2.9,0c-0.2,0.4-0.5,0.7-0.7,1.1
	c-0.4,0-0.9,0-1.3,0c0-0.1,0.1-0.2,0.1-0.3c0.7-1.1,1.4-2.2,2.2-3.4c0.4-0.6,0.9-0.9,1.5-0.9C45.6,4.2,46.4,4.2,47.2,4.2z M44,6.3
	c0.7,0,1.3,0,2,0c0-0.3,0-0.6,0-1c-0.5,0-0.9,0-1.4,0C44.4,5.6,44.1,5.9,44,6.3z"/>
<path class="st0" d="M52.5,7.2c0-1,0-2,0-3c0.4,0,0.7,0,1.1,0c0,1.5,0,3,0,4.5c-0.4,0-0.8,0-1.2,0c-1.1-1-2.3-1.9-3.5-2.9
	c0,1,0,1.9,0,2.9c-0.4,0.1-0.8,0-1.2,0c0-1.5,0-3,0-4.5c0.4,0,0.8,0,1.2,0C50.2,5.2,51.3,6.1,52.5,7.2z"/>
<path class="st0" d="M36.9,4.2c-0.1,0.4-0.1,0.7-0.2,1.1c-0.4,0.1-0.7,0-1.1,0c-0.4,0-0.7,0-1.1,0c-0.4,0-0.8,0-1.1,0
	c-0.4,0-0.7,0-1.1,0c-0.1,0.4-0.1,1.9,0,2.2c1.4,0,2.9,0,4.4,0c0.1,0.4,0.1,0.8,0.2,1.1c0,0-0.1,0.1-0.2,0.1c-1.5,0-3,0-4.5,0
	c-0.6,0-1-0.3-1.2-0.9c0-0.1,0-0.2,0-0.2c0-1,0-2.1,0-3.1c0-0.1,0-0.2,0-0.3C33,4.2,34.9,4.2,36.9,4.2z"/>
<path class="st0" d="M60,7.6c0.1,0.4,0.1,0.8,0.2,1.1C60.1,8.7,60,8.7,60,8.7c-1.4,0-2.9,0-4.3,0c-0.1,0-0.2,0-0.4,0
	c-0.6-0.2-0.9-0.7-0.9-1.1c0-1.1,0-2.2,0-3.3c0,0,0,0,0-0.1c1.9,0,3.8,0,5.7,0c0,0.3,0,0.8-0.2,1.1c-1.5,0-2.9,0-4.4,0
	c0,0.7,0,1.4,0,2.1c0.4,0.1,0.7,0,1.1,0c0.4,0,0.8,0,1.1,0c0.4,0,0.7,0,1.1,0C59.3,7.6,59.6,7.6,60,7.6z"/>
<path class="st0" d="M11.6,8.7c0-1.1,0-2.2,0-3.3c-0.8,0-1.5,0-2.3,0c0-0.4,0-0.8,0-1.1c1.9,0,3.9,0,5.8,0c0,0.4,0,0.7,0,1.1
	c-0.8,0-1.5,0-2.3,0c0,1.1,0,2.2,0,3.3C12.4,8.7,12,8.7,11.6,8.7z"/>
<path class="st0" d="M63.7,5.9c0.5-0.6,0.9-1.1,1.4-1.6c0.5,0,1,0,1.5,0C65.8,5.2,65,6.1,64.3,7c0,0.5,0,1.1,0,1.7
	c-0.4,0.1-0.8,0-1.1,0c0-0.6,0-1.1,0-1.7c-0.8-0.9-1.5-1.8-2.3-2.8c0.5,0,1,0,1.5,0C62.8,4.8,63.2,5.3,63.7,5.9z"/>
<path class="st0" d="M37.5,8.7c0-1.5,0-3,0-4.5c0.4,0,0.7,0,1.1,0c0,0,0,0,0,0c0,0,0,0,0,0c0,1.1,0,2.1,0,3.2c0.3,0.1,0.6,0,0.9,0
	c0.3,0,0.6,0,0.9,0c0.3,0,0.6,0,1,0c-0.3,0.4-0.5,0.8-0.7,1.1C39.6,8.7,38.5,8.7,37.5,8.7z"/>
<path class="st0" d="M68.8,4.2c-0.4,0.5-0.7,0.9-1.1,1.3c-0.3,0-0.6,0-0.9,0c0-0.2,0-0.5,0-0.7c0.1-0.2,0.3-0.3,0.5-0.5
	C67.8,4.2,68.2,4.2,68.8,4.2z"/>
</svg>
